{"glyphs":{"0":{"ha":400,"x_min":46,"x_max":354,"o":"m 200 -4 q 86 41 126 -4 q 46 158 46 86 l 46 767 q 86 885 46 840 q 200 931 126 931 q 314 885 274 931 q 354 767 354 840 l 354 158 q 314 41 354 86 q 200 -4 274 -4 m 164 164 q 171 122 164 136 q 200 107 178 107 q 229 122 222 107 q 236 164 236 136 l 236 285 l 164 285 l 164 164 m 236 425 l 236 761 q 229 803 236 789 q 200 817 222 817 q 171 803 178 817 q 164 761 164 789 l 164 425 l 236 425 z "},"1":{"ha":315,"x_min":46,"x_max":268,"o":"m 151 761 l 90 735 l 46 838 l 151 886 l 151 917 l 268 917 l 268 0 l 151 0 l 151 761 z "},"2":{"ha":400,"x_min":46,"x_max":354,"o":"m 51 258 q 92 386 51 336 q 196 469 132 436 q 226 499 215 481 q 236 539 236 517 l 236 763 q 230 803 236 790 q 201 817 224 817 q 172 803 179 817 q 165 763 165 790 l 165 632 l 46 632 l 46 767 q 87 885 46 840 q 201 931 128 931 q 315 885 275 931 q 354 767 354 840 l 354 539 q 249 374 354 429 q 191 332 213 356 q 169 268 169 308 l 169 117 l 343 117 l 343 0 l 51 0 l 51 258 z "},"3":{"ha":407,"x_min":46,"x_max":361,"o":"m 208 -14 q 94 31 135 -14 q 53 150 53 76 l 53 285 l 172 285 l 172 157 q 179 115 172 129 q 208 100 186 100 q 237 115 231 100 q 243 157 243 129 l 243 374 q 229 413 243 404 q 182 421 215 421 l 182 526 q 222 538 208 528 q 236 578 236 549 l 236 763 q 230 803 236 790 q 201 817 224 817 q 172 803 179 817 q 165 763 165 790 l 165 632 l 46 632 l 46 767 q 87 885 46 840 q 201 931 128 931 q 315 885 275 931 q 354 767 354 840 l 354 553 q 338 478 354 510 q 356 444 350 460 q 361 408 361 429 l 361 150 q 321 31 361 76 q 208 -14 281 -14 z "},"4":{"ha":469,"x_min":46,"x_max":424,"o":"m 221 324 l 46 324 l 46 917 l 164 917 l 164 442 l 221 442 l 221 564 l 339 564 l 339 442 l 424 442 l 424 324 l 339 324 l 339 36 l 221 36 l 221 324 z "},"5":{"ha":400,"x_min":46,"x_max":354,"o":"m 201 0 q 87 45 128 0 q 46 164 46 90 l 46 294 l 165 294 l 165 168 q 172 126 165 140 q 201 113 179 113 q 230 126 224 113 q 236 168 236 140 l 236 422 q 224 467 236 451 q 175 483 211 483 q 83 517 118 483 q 49 613 49 551 l 49 917 l 340 917 l 340 800 l 167 800 l 167 619 q 179 590 167 599 q 224 581 192 581 q 315 534 276 581 q 354 422 354 488 l 354 164 q 315 45 354 90 q 201 0 275 0 z "},"6":{"ha":400,"x_min":46,"x_max":354,"o":"m 200 -14 q 86 31 126 -14 q 46 149 46 76 l 46 767 q 86 885 46 840 q 200 931 126 931 q 314 885 274 931 q 354 767 354 840 l 354 631 l 236 631 l 236 763 q 229 803 236 789 q 200 817 222 817 q 171 803 178 817 q 164 763 164 789 l 164 597 q 200 601 181 601 q 314 556 274 601 q 354 438 354 511 l 354 149 q 314 31 354 76 q 200 -14 274 -14 m 164 154 q 171 112 164 126 q 200 97 178 97 q 229 112 222 97 q 236 154 236 126 l 236 435 q 229 475 236 461 q 200 489 222 489 q 171 475 178 489 q 164 435 164 461 l 164 154 z "},"7":{"ha":507,"x_min":46,"x_max":461,"o":"m 319 800 l 46 800 l 46 917 l 461 917 l 267 0 l 149 0 l 319 800 z "},"8":{"ha":400,"x_min":46,"x_max":354,"o":"m 200 -14 q 86 31 126 -14 q 46 149 46 76 l 46 343 q 78 451 46 408 q 46 558 46 494 l 46 767 q 86 885 46 840 q 200 931 126 931 q 314 885 274 931 q 354 767 354 840 l 354 558 q 322 451 354 494 q 354 343 354 408 l 354 149 q 314 31 354 76 q 200 -14 274 -14 m 164 154 q 171 112 164 126 q 200 97 178 97 q 229 112 222 97 q 236 154 236 126 l 236 340 q 229 381 236 367 q 200 394 222 394 q 171 381 178 394 q 164 340 164 367 l 164 154 m 164 564 q 171 522 164 536 q 200 507 178 507 q 229 520 222 507 q 236 564 236 533 l 236 763 q 229 803 236 789 q 200 817 222 817 q 171 803 178 817 q 164 763 164 789 l 164 564 z "},"9":{"ha":400,"x_min":46,"x_max":354,"o":"m 200 929 q 314 884 274 929 q 354 767 354 839 l 354 149 q 314 30 354 75 q 200 -15 274 -15 q 86 30 126 -15 q 46 149 46 75 l 46 285 l 164 285 l 164 153 q 171 113 164 126 q 200 99 178 99 q 229 113 222 99 q 236 153 236 126 l 236 318 q 200 314 219 314 q 86 359 126 314 q 46 478 46 404 l 46 767 q 86 884 46 839 q 200 929 126 929 m 164 481 q 171 440 164 454 q 200 426 178 426 q 229 440 222 426 q 236 481 236 454 l 236 761 q 229 803 236 789 q 200 818 222 818 q 171 803 178 818 q 164 761 164 789 l 164 481 z "}," ":{"ha":208,"x_min":0,"x_max":0,"o":""}," ":{"ha":208,"x_min":0,"x_max":0,"o":""},"A":{"ha":475,"x_min":46,"x_max":428,"o":"m 182 917 l 293 917 l 428 0 l 314 0 l 299 100 l 176 100 l 161 0 l 46 0 l 182 917 m 283 207 l 238 518 l 192 207 l 283 207 z "},"B":{"ha":397,"x_min":46,"x_max":351,"o":"m 46 917 l 171 917 q 294 877 249 917 q 339 776 339 838 l 339 560 q 330 519 339 533 q 293 490 321 504 q 351 394 351 467 l 351 150 q 310 36 351 72 q 171 0 269 0 l 46 0 l 46 917 m 164 108 q 213 112 200 110 q 231 122 226 114 q 235 151 235 131 l 235 389 q 219 416 235 411 q 164 421 204 421 l 164 108 m 164 526 q 212 532 199 526 q 225 561 225 538 l 225 783 q 213 810 225 806 q 164 815 201 815 l 164 526 z "},"C":{"ha":400,"x_min":46,"x_max":354,"o":"m 200 -14 q 86 31 126 -14 q 46 149 46 76 l 46 767 q 86 885 46 840 q 200 931 126 931 q 314 885 274 931 q 354 767 354 840 l 354 611 l 236 611 l 236 765 q 228 803 236 789 q 200 817 221 817 q 171 803 178 817 q 164 765 164 790 l 164 151 q 171 111 164 125 q 200 97 178 97 q 229 111 222 97 q 236 151 236 125 l 236 300 l 354 300 l 354 149 q 314 31 354 76 q 200 -14 274 -14 z "},"D":{"ha":397,"x_min":46,"x_max":351,"o":"m 46 917 l 171 917 q 310 877 268 917 q 351 760 351 838 l 351 157 q 310 39 351 78 q 171 0 268 0 l 46 0 l 46 917 m 164 108 q 211 114 196 108 q 231 128 226 119 q 235 157 235 138 l 235 760 q 222 797 235 786 q 164 807 210 807 l 164 108 z "},"E":{"ha":354,"x_min":46,"x_max":308,"o":"m 46 917 l 308 917 l 308 807 l 164 807 l 164 529 l 285 529 l 285 421 l 164 421 l 164 108 l 308 108 l 308 0 l 46 0 l 46 917 z "},"F":{"ha":354,"x_min":46,"x_max":308,"o":"m 46 917 l 308 917 l 308 807 l 164 807 l 164 529 l 285 529 l 285 421 l 164 421 l 164 0 l 46 0 l 46 917 z "},"G":{"ha":400,"x_min":46,"x_max":354,"o":"m 200 -14 q 86 31 126 -14 q 46 149 46 76 l 46 767 q 86 885 46 840 q 200 931 126 931 q 314 885 274 931 q 354 765 354 839 l 354 611 l 236 611 l 236 763 q 229 803 236 789 q 200 817 222 817 q 171 803 178 817 q 164 763 164 789 l 164 151 q 171 111 164 125 q 200 97 178 97 q 229 111 222 97 q 236 151 236 125 l 236 421 l 199 421 l 199 529 l 354 529 l 354 147 q 314 31 354 75 q 200 -14 274 -14 z "},"H":{"ha":435,"x_min":46,"x_max":388,"o":"m 46 917 l 165 917 l 165 529 l 269 529 l 269 917 l 388 917 l 388 0 l 269 0 l 269 421 l 165 421 l 165 0 l 46 0 l 46 917 z "},"I":{"ha":210,"x_min":46,"x_max":164,"o":"m 46 917 l 164 917 l 164 0 l 46 0 l 46 917 z "},"J":{"ha":403,"x_min":46,"x_max":357,"o":"m 203 -14 q 87 33 128 -14 q 46 151 46 79 l 46 300 l 164 300 l 164 157 q 172 114 164 129 q 203 99 179 99 q 232 114 225 99 q 239 157 239 129 l 239 807 l 154 807 l 154 917 l 357 917 l 357 153 q 317 33 357 79 q 203 -14 276 -14 z "},"K":{"ha":461,"x_min":46,"x_max":415,"o":"m 46 917 l 165 917 l 163 478 l 282 917 l 401 917 l 229 336 l 415 0 l 293 0 l 165 239 l 165 0 l 46 0 l 46 917 z "},"L":{"ha":354,"x_min":46,"x_max":308,"o":"m 46 917 l 164 917 l 164 108 l 308 108 l 308 0 l 46 0 l 46 917 z "},"M":{"ha":588,"x_min":46,"x_max":542,"o":"m 46 917 l 158 917 l 294 768 l 431 917 l 542 917 l 542 0 l 425 0 l 425 744 l 331 638 l 258 638 l 164 742 l 164 0 l 46 0 l 46 917 z "},"N":{"ha":439,"x_min":46,"x_max":393,"o":"m 46 917 l 164 917 l 164 742 l 276 479 l 276 917 l 393 917 l 393 0 l 276 0 l 276 217 l 164 471 l 164 0 l 46 0 l 46 917 z "},"O":{"ha":400,"x_min":46,"x_max":354,"o":"m 200 -4 q 86 41 126 -4 q 46 158 46 86 l 46 753 q 86 872 46 826 q 200 917 126 917 q 314 872 274 917 q 354 753 354 826 l 354 158 q 314 41 354 86 q 200 -4 274 -4 m 164 164 q 171 122 164 136 q 200 107 178 107 q 229 122 222 107 q 236 164 236 136 l 236 749 q 229 789 236 775 q 200 803 222 803 q 171 789 178 803 q 164 749 164 775 l 164 164 z "},"P":{"ha":386,"x_min":46,"x_max":339,"o":"m 46 917 l 172 917 q 297 882 256 917 q 339 768 339 847 l 339 558 q 294 463 339 504 q 172 421 250 421 l 164 421 l 164 0 l 46 0 l 46 917 m 164 528 q 216 533 206 528 q 226 560 226 538 l 226 776 q 216 810 226 804 q 164 815 206 815 l 164 528 z "},"Q":{"ha":406,"x_min":46,"x_max":360,"o":"m 240 -57 q 234 -17 240 -31 q 206 -4 228 -4 q 87 41 128 -4 q 46 158 46 86 l 46 753 q 86 872 46 826 q 200 917 126 917 q 314 872 274 917 q 354 753 354 826 l 354 158 q 325 54 354 96 q 360 -56 360 11 l 360 -117 l 240 -117 l 240 -57 m 164 161 q 171 120 164 133 q 200 107 178 107 q 229 120 222 107 q 236 161 236 133 l 236 751 q 229 790 236 778 q 200 803 222 803 q 171 790 178 803 q 164 751 164 778 l 164 161 z "},"R":{"ha":386,"x_min":46,"x_max":339,"o":"m 46 917 l 172 917 q 298 878 257 917 q 339 776 339 840 l 339 564 q 310 475 339 504 q 339 372 339 449 l 339 0 l 226 0 l 226 372 q 215 411 226 401 q 181 421 204 421 l 164 421 l 164 0 l 46 0 l 46 917 m 164 526 q 216 532 206 526 q 226 564 226 538 l 226 783 q 215 810 226 806 q 164 817 203 815 l 164 526 z "},"S":{"ha":401,"x_min":46,"x_max":356,"o":"m 201 -14 q 87 31 128 -14 q 46 149 46 76 l 46 300 l 165 300 l 165 151 q 172 110 165 124 q 201 97 179 97 q 230 110 224 97 q 236 151 236 124 l 236 351 q 227 392 236 376 q 194 417 218 407 q 84 488 121 447 q 47 594 47 528 l 47 765 q 88 885 47 839 q 201 931 128 931 q 315 885 275 931 q 356 765 356 839 l 356 611 l 236 611 l 236 765 q 230 804 236 792 q 201 817 224 817 q 172 804 179 817 q 165 765 165 792 l 165 594 q 174 557 165 571 q 204 535 183 543 q 313 465 272 510 q 354 351 354 419 l 354 149 q 315 31 354 76 q 201 -14 275 -14 z "},"T":{"ha":382,"x_min":46,"x_max":335,"o":"m 133 810 l 46 810 l 46 917 l 335 917 l 335 810 l 250 810 l 250 0 l 133 0 l 133 810 z "},"U":{"ha":403,"x_min":46,"x_max":357,"o":"m 201 -14 q 87 37 128 -14 q 46 163 46 88 l 46 917 l 165 917 l 165 163 q 172 115 165 132 q 201 99 179 99 q 231 115 224 99 q 238 163 238 132 l 238 917 l 357 917 l 357 163 q 315 38 357 89 q 201 -14 274 -14 z "},"V":{"ha":449,"x_min":46,"x_max":403,"o":"m 46 917 l 165 917 l 224 385 l 283 917 l 403 917 l 281 0 l 168 0 l 46 917 z "},"W":{"ha":624,"x_min":46,"x_max":578,"o":"m 46 917 l 161 917 l 225 432 l 272 638 l 351 638 l 400 432 l 463 917 l 578 917 l 457 0 l 347 0 l 313 349 l 278 0 l 165 0 l 46 917 z "},"X":{"ha":464,"x_min":46,"x_max":417,"o":"m 169 451 l 46 917 l 165 917 l 232 656 l 297 917 l 417 917 l 293 451 l 407 0 l 288 0 l 232 243 l 175 0 l 56 0 l 169 451 z "},"Y":{"ha":435,"x_min":46,"x_max":389,"o":"m 158 432 l 46 917 l 165 917 l 218 672 l 269 917 l 389 917 l 276 432 l 276 0 l 158 0 l 158 432 z "},"Z":{"ha":369,"x_min":46,"x_max":324,"o":"m 46 97 l 207 807 l 46 807 l 46 917 l 324 917 l 324 819 l 165 110 l 324 110 l 324 0 l 46 0 l 46 97 z "},"a":{"ha":400,"x_min":46,"x_max":354,"o":"m 200 -14 q 86 31 126 -14 q 46 149 46 75 l 46 325 q 86 444 46 399 q 200 489 126 489 l 236 489 l 236 551 q 229 591 236 578 q 200 604 222 604 q 171 591 178 604 q 164 551 164 578 l 164 515 l 46 515 l 46 554 q 86 673 46 628 q 200 718 126 718 q 314 673 274 718 q 354 554 354 628 l 354 149 q 314 31 354 76 q 200 -14 274 -14 m 164 151 q 172 110 164 124 q 200 96 179 96 q 229 110 222 96 q 236 151 236 125 l 236 375 l 200 375 q 171 363 178 375 q 164 324 164 350 l 164 151 z "},"b":{"ha":400,"x_min":46,"x_max":354,"o":"m 200 -14 q 86 31 126 -14 q 46 149 46 75 l 46 917 l 165 917 l 165 714 q 200 718 181 718 q 314 673 274 718 q 354 554 354 628 l 354 149 q 314 31 354 76 q 200 -14 274 -14 m 164 151 q 171 110 164 125 q 200 96 178 96 q 229 110 222 96 q 236 151 236 125 l 236 553 q 197 604 236 604 q 165 553 165 604 l 164 151 z "},"c":{"ha":400,"x_min":46,"x_max":354,"o":"m 200 -14 q 86 31 126 -14 q 46 149 46 76 l 46 554 q 86 673 46 628 q 200 718 126 718 q 314 673 274 718 q 354 554 354 628 l 354 438 l 236 438 l 236 550 q 229 590 236 576 q 200 604 222 604 q 171 590 178 604 q 164 550 164 576 l 164 154 q 171 112 164 126 q 200 97 178 97 q 229 112 222 97 q 236 154 236 126 l 236 257 l 354 257 l 354 149 q 314 31 354 76 q 200 -14 274 -14 z "},"d":{"ha":400,"x_min":46,"x_max":354,"o":"m 201 -14 q 87 31 128 -14 q 46 149 46 75 l 46 554 q 87 673 46 628 q 201 718 128 718 q 236 714 219 718 l 236 917 l 354 917 l 354 149 q 315 31 354 75 q 201 -14 275 -14 m 165 151 q 172 110 165 125 q 201 96 179 96 q 230 110 224 96 q 236 151 236 125 l 236 568 q 226 595 233 586 q 201 604 218 604 q 172 591 179 604 q 165 553 165 578 l 165 151 z "},"e":{"ha":400,"x_min":46,"x_max":354,"o":"m 200 -14 q 86 31 126 -14 q 46 149 46 76 l 46 554 q 86 673 46 628 q 200 718 126 718 q 314 673 274 718 q 354 554 354 628 l 354 450 q 313 335 354 379 q 200 292 272 292 l 164 292 l 164 151 q 171 110 164 124 q 200 97 178 97 q 229 110 222 97 q 236 151 236 124 l 236 238 l 354 238 l 354 149 q 314 31 354 76 q 200 -14 274 -14 m 200 404 q 229 417 222 404 q 236 457 236 431 l 236 553 q 229 591 236 578 q 200 604 222 604 q 171 591 178 604 q 164 553 164 578 l 164 404 l 200 404 z "},"f":{"ha":294,"x_min":46,"x_max":249,"o":"m 46 763 q 85 881 46 835 q 193 926 124 926 l 249 926 l 249 806 l 201 806 q 172 795 179 806 q 165 760 165 785 l 165 706 l 222 706 l 222 600 l 165 600 l 164 0 l 46 0 l 46 763 z "},"g":{"ha":411,"x_min":46,"x_max":388,"o":"m 153 -215 l 197 -215 q 228 -203 219 -215 q 236 -167 236 -190 l 236 -8 q 200 -14 214 -14 q 86 31 126 -14 q 46 149 46 76 l 46 554 q 86 673 46 628 q 200 718 126 718 q 296 689 257 718 q 386 704 331 707 l 388 592 q 351 589 376 592 q 354 554 354 564 l 353 -171 q 208 -335 353 -335 l 153 -335 l 153 -215 m 164 151 q 171 111 164 125 q 200 97 178 97 q 229 111 222 97 q 236 151 236 125 l 236 553 q 229 592 236 579 q 200 606 222 606 q 171 592 178 606 q 164 553 164 579 l 164 151 z "},"h":{"ha":400,"x_min":46,"x_max":354,"o":"m 46 1 l 46 918 l 164 918 l 164 714 q 200 718 181 718 q 314 673 274 718 q 354 554 354 628 l 354 0 l 236 0 l 236 550 q 229 590 236 576 q 200 604 222 604 q 171 590 178 604 q 164 550 164 576 l 164 0 l 46 1 z "},"i":{"ha":228,"x_min":46,"x_max":181,"o":"m 56 704 l 174 704 l 174 0 l 56 0 l 56 704 m 46 851 q 66 899 46 879 q 114 918 86 918 q 161 899 142 918 q 181 851 181 879 q 161 803 181 822 q 114 783 142 783 q 66 803 86 783 q 46 851 46 822 z "},"j":{"ha":408,"x_min":46,"x_max":363,"o":"m 200 -335 q 86 -290 126 -335 q 46 -172 46 -246 l 46 -92 l 164 -90 l 164 -172 q 172 -211 164 -197 q 200 -225 179 -225 q 229 -210 222 -225 q 236 -168 236 -196 l 236 704 l 354 704 l 354 -172 q 314 -290 354 -244 q 200 -335 274 -335 m 228 851 q 247 899 228 879 q 296 918 267 918 q 343 899 324 918 q 363 851 363 879 q 343 803 363 822 q 296 783 324 783 q 247 803 267 783 q 228 851 228 822 z "},"k":{"ha":488,"x_min":46,"x_max":442,"o":"m 46 917 l 165 917 l 165 493 l 276 704 l 399 704 l 204 339 l 442 0 l 318 0 l 165 206 l 165 0 l 46 0 l 46 917 z "},"l":{"ha":210,"x_min":46,"x_max":164,"o":"m 46 917 l 164 917 l 164 0 l 46 0 l 46 917 z "},"m":{"ha":589,"x_min":46,"x_max":543,"o":"m 46 554 q 86 673 46 628 q 200 718 126 718 q 294 690 256 718 q 389 718 331 718 q 503 673 463 718 q 543 554 543 628 l 543 0 l 425 0 l 425 551 q 418 591 425 578 q 389 604 411 604 q 362 592 369 604 q 354 553 354 581 l 354 0 l 236 0 l 236 551 q 229 591 236 578 q 200 604 222 604 q 171 591 178 604 q 164 551 164 578 l 164 0 l 46 0 l 46 554 z "},"n":{"ha":400,"x_min":46,"x_max":354,"o":"m 46 554 q 86 673 46 628 q 200 718 126 718 q 314 673 274 718 q 354 554 354 628 l 354 0 l 236 0 l 236 550 q 229 590 236 576 q 200 604 222 604 q 171 590 178 604 q 164 550 164 576 l 164 0 l 46 0 l 46 554 z "},"o":{"ha":400,"x_min":46,"x_max":354,"o":"m 200 -14 q 86 31 126 -14 q 46 149 46 75 l 46 554 q 86 673 46 628 q 200 718 126 718 q 314 673 274 718 q 354 554 354 628 l 354 149 q 314 31 354 76 q 200 -14 274 -14 m 164 153 q 171 110 164 125 q 200 96 178 96 q 229 110 222 96 q 236 153 236 125 l 236 550 q 229 590 236 576 q 200 604 222 604 q 171 590 178 604 q 164 550 164 576 l 164 153 z "},"p":{"ha":400,"x_min":46,"x_max":354,"o":"m 46 556 q 86 673 46 628 q 200 718 126 718 q 314 673 274 718 q 354 556 354 628 l 354 150 q 314 31 354 76 q 200 -14 274 -14 q 165 -8 185 -14 l 165 -207 l 46 -207 l 46 556 m 165 136 q 200 100 168 100 q 229 113 222 100 q 236 151 236 126 l 236 550 q 229 592 236 578 q 200 607 222 607 q 171 592 178 607 q 164 550 164 578 l 165 136 z "},"q":{"ha":400,"x_min":46,"x_max":354,"o":"m 236 -8 q 201 -14 214 -14 q 87 31 128 -14 q 46 150 46 76 l 46 556 q 87 673 46 628 q 201 718 128 718 q 315 673 275 718 q 354 556 354 628 l 354 -207 l 236 -207 l 236 -8 m 165 151 q 172 113 165 126 q 201 100 179 100 q 226 109 218 100 q 236 136 233 118 l 236 550 q 230 593 236 579 q 201 607 224 607 q 172 593 179 607 q 165 550 165 579 l 165 151 z "},"r":{"ha":400,"x_min":46,"x_max":354,"o":"m 46 554 q 87 673 46 628 q 201 718 128 718 q 315 673 275 718 q 354 554 354 628 l 354 438 l 236 438 l 236 550 q 230 591 236 578 q 201 604 224 604 q 172 591 179 604 q 165 550 165 578 l 164 0 l 46 0 l 46 554 z "},"s":{"ha":401,"x_min":46,"x_max":356,"o":"m 200 -14 q 86 31 126 -14 q 46 150 46 76 l 46 261 l 164 261 l 164 154 q 171 113 164 128 q 200 99 178 99 q 229 113 222 99 q 236 154 236 128 l 236 253 q 228 289 236 278 q 196 306 221 300 q 47 482 47 342 l 47 554 q 88 673 47 628 q 201 718 128 718 q 315 673 275 718 q 356 554 356 628 l 356 461 l 236 461 l 236 550 q 230 591 236 578 q 201 604 224 604 q 172 591 179 604 q 165 550 165 578 l 165 481 q 177 441 165 456 q 214 418 189 426 q 322 358 289 390 q 354 260 354 325 l 354 150 q 314 31 354 76 q 200 -14 274 -14 z "},"t":{"ha":308,"x_min":46,"x_max":263,"o":"m 46 917 l 164 917 l 165 704 l 263 704 l 263 597 l 165 597 l 165 0 l 46 0 l 46 917 z "},"u":{"ha":400,"x_min":46,"x_max":354,"o":"m 200 -14 q 86 31 126 -14 q 46 150 46 76 l 46 704 l 164 704 l 164 154 q 171 113 164 128 q 200 99 178 99 q 229 113 222 99 q 236 154 236 128 l 236 704 l 354 704 l 354 150 q 314 31 354 76 q 200 -14 274 -14 z "},"v":{"ha":404,"x_min":46,"x_max":358,"o":"m 46 704 l 165 704 l 204 279 l 239 704 l 358 704 l 267 0 l 143 0 l 46 704 z "},"w":{"ha":594,"x_min":46,"x_max":549,"o":"m 46 704 l 165 704 l 203 301 l 238 704 l 358 704 l 396 301 l 429 704 l 549 704 l 457 0 l 333 0 l 300 332 l 267 0 l 143 0 l 46 704 z "},"x":{"ha":406,"x_min":46,"x_max":360,"o":"m 122 350 l 46 704 l 165 704 l 204 488 l 240 704 l 360 704 l 290 350 l 360 0 l 240 0 l 204 225 l 165 0 l 46 0 l 122 350 z "},"y":{"ha":404,"x_min":46,"x_max":358,"o":"m 149 13 l 46 704 l 165 704 l 206 296 l 239 704 l 358 704 l 267 11 l 225 -335 l 106 -335 l 149 13 z "},"z":{"ha":369,"x_min":46,"x_max":324,"o":"m 46 99 l 206 594 l 46 594 l 46 704 l 324 704 l 324 606 l 167 110 l 324 110 l 324 0 l 46 0 l 46 99 z "},".":{"ha":246,"x_min":46,"x_max":200,"o":"m 122 0 q 67 22 89 0 q 46 76 46 44 q 68 135 46 111 q 122 160 90 160 q 178 137 157 160 q 200 76 200 114 q 177 23 200 46 q 122 0 154 0 z "},",":{"ha":286,"x_min":46,"x_max":240,"o":"m 119 193 l 240 193 l 167 0 l 46 0 l 119 193 z "},"'":{"ha":301,"x_min":46,"x_max":254,"o":"m 46 917 l 167 917 l 254 685 l 135 685 l 46 917 z "},"\"":{"ha":443,"x_min":46,"x_max":396,"o":"m 46 917 l 167 917 l 254 685 l 135 685 l 46 917 m 188 917 l 308 917 l 396 685 l 276 685 l 188 917 z "},"‘":{"ha":301,"x_min":64,"x_max":272,"o":"m 64 917 l 185 917 l 272 685 l 153 685 l 64 917 z "},"’":{"ha":301,"x_min":28,"x_max":236,"o":"m 28 685 l 115 917 l 236 917 l 147 685 l 28 685 z "},"“":{"ha":476,"x_min":64,"x_max":414,"o":"m 64 917 l 185 917 l 272 685 l 153 685 l 64 917 m 206 917 l 326 917 l 414 685 l 294 685 l 206 917 z "},"”":{"ha":415,"x_min":0,"x_max":350,"o":"m 142 685 l 229 917 l 350 917 l 261 685 l 142 685 m 88 917 l 208 917 l 119 685 l 0 685 l 88 917 z "},"-":{"ha":481,"x_min":46,"x_max":433,"o":"m 46 485 l 433 485 l 433 365 l 46 365 l 46 485 z "},"+":{"ha":481,"x_min":46,"x_max":433,"o":"m 182 365 l 46 365 l 46 485 l 182 485 l 182 619 l 300 619 l 300 485 l 433 485 l 433 365 l 300 365 l 300 232 l 182 232 l 182 365 z "},"*":{"ha":481,"x_min":51,"x_max":429,"o":"m 146 638 l 79 625 l 51 726 l 93 736 l 54 758 l 99 850 l 153 808 l 146 881 l 242 914 l 250 854 l 276 892 l 368 846 l 346 811 l 396 821 l 429 726 l 358 718 l 414 675 l 368 583 l 329 610 l 342 567 l 243 535 l 232 593 l 192 532 l 101 578 l 146 638 z "},"^":{"ha":506,"x_min":56,"x_max":450,"o":"m 258 917 l 450 672 l 325 672 l 254 774 l 183 672 l 56 671 l 258 917 z "},"/":{"ha":600,"x_min":46,"x_max":553,"o":"m 432 917 l 553 917 l 167 0 l 46 0 l 432 917 z "},"\\":{"ha":600,"x_min":46,"x_max":553,"o":"m 46 917 l 167 917 l 553 0 l 432 0 l 46 917 z "},":":{"ha":233,"x_min":46,"x_max":201,"o":"m 124 67 q 69 89 90 67 q 47 143 47 111 q 69 202 47 178 q 124 226 92 226 q 180 203 158 226 q 201 143 201 181 q 178 90 201 113 q 124 67 156 67 m 122 554 q 67 576 89 554 q 46 631 46 599 q 68 690 46 665 q 122 714 90 714 q 178 691 157 714 q 200 631 200 668 q 177 577 200 600 q 122 554 154 554 z "},";":{"ha":286,"x_min":46,"x_max":242,"o":"m 164 588 q 109 610 131 588 q 88 664 88 632 q 110 723 88 699 q 164 747 132 747 q 220 724 199 747 q 242 664 242 701 q 219 610 242 633 q 164 588 196 588 m 119 239 l 240 239 l 167 46 l 46 46 l 119 239 z "},"<":{"ha":525,"x_min":46,"x_max":478,"o":"m 46 439 l 346 697 l 478 697 l 181 440 l 460 179 l 329 179 l 46 439 z "},"=":{"ha":479,"x_min":46,"x_max":432,"o":"m 46 563 l 432 563 l 432 443 l 46 443 l 46 563 m 46 413 l 432 413 l 432 294 l 46 294 l 46 413 z "},">":{"ha":524,"x_min":46,"x_max":478,"o":"m 343 440 l 46 697 l 178 697 l 478 439 l 194 179 l 64 179 l 343 440 z "},"!":{"ha":222,"x_min":46,"x_max":176,"o":"m 81 917 l 150 917 l 135 164 l 86 164 l 81 917 m 46 64 q 65 109 46 89 q 111 129 83 129 q 158 110 140 129 q 176 64 176 90 q 156 20 176 40 q 111 0 136 0 q 65 19 83 0 q 46 64 46 39 z "},"?":{"ha":406,"x_min":46,"x_max":360,"o":"m 53 351 q 94 465 53 419 q 203 535 135 510 q 233 557 224 543 q 242 594 242 571 l 242 761 q 235 803 242 789 q 207 817 229 817 q 178 803 185 817 q 171 761 171 789 l 171 611 l 51 611 l 51 765 q 92 885 51 839 q 207 931 133 931 q 319 885 279 931 q 360 765 360 839 l 360 594 q 323 488 360 528 q 213 417 286 447 q 180 392 189 407 q 171 351 171 376 l 171 164 l 53 164 l 53 351 m 46 65 q 65 110 46 90 q 111 131 85 131 q 160 111 142 131 q 178 65 178 92 q 158 20 178 40 q 111 0 138 0 q 65 20 85 0 q 46 65 46 40 z "},"#":{"ha":1029,"x_min":46,"x_max":983,"o":"m 235 306 l 46 306 l 94 424 l 285 424 l 332 535 l 114 535 l 163 653 l 382 653 l 493 917 l 614 917 l 503 653 l 653 653 l 763 917 l 883 917 l 774 653 l 983 653 l 935 535 l 724 535 l 676 424 l 915 424 l 868 306 l 626 306 l 497 0 l 376 0 l 506 306 l 356 306 l 228 0 l 107 0 l 235 306 m 556 424 l 603 535 l 453 535 l 406 424 l 556 424 z "},"@":{"ha":603,"x_min":46,"x_max":557,"o":"m 311 -117 q 123 -67 200 -121 q 46 118 46 -12 l 46 553 q 82 680 46 626 q 175 762 118 733 q 294 790 232 790 q 417 762 357 790 q 517 679 478 733 q 557 553 557 625 l 557 138 q 524 67 557 92 q 446 43 490 43 q 399 51 421 43 q 367 74 378 60 q 299 54 339 54 q 213 88 243 54 q 183 176 183 121 l 183 311 q 213 401 183 367 q 299 435 243 435 l 328 435 l 328 485 q 322 516 328 506 q 299 526 317 526 q 275 516 281 526 q 269 485 269 506 l 269 456 l 183 456 l 183 486 q 213 576 183 542 q 299 610 243 610 q 385 576 354 610 q 415 486 415 542 l 415 160 q 422 135 415 144 q 439 126 429 126 q 456 135 449 126 q 463 158 463 143 l 463 556 q 438 628 463 596 q 375 679 414 661 q 294 697 336 697 q 187 658 232 697 q 142 556 142 618 l 142 117 q 311 -24 142 -24 l 311 -117 m 269 179 q 299 135 269 135 q 322 147 317 135 q 328 179 328 158 l 328 351 l 299 351 q 275 341 281 351 q 269 310 269 331 l 269 179 z "},"$":{"ha":401,"x_min":46,"x_max":356,"o":"m 149 -6 q 73 50 100 8 q 46 149 46 92 l 46 300 l 165 300 l 165 154 q 172 111 165 125 q 201 97 179 97 q 230 111 224 97 q 236 154 236 125 l 236 351 q 227 392 236 376 q 194 417 218 407 q 84 488 121 447 q 47 594 47 528 l 47 765 q 74 865 47 824 q 149 922 100 907 l 149 1017 l 254 1017 l 254 922 q 329 865 303 907 q 356 765 356 824 l 356 611 l 236 611 l 236 764 q 230 804 236 792 q 201 817 224 817 q 172 804 179 817 q 165 764 165 792 l 165 594 q 174 557 165 571 q 204 535 183 543 q 313 465 272 510 q 354 351 354 419 l 354 149 q 328 49 354 90 q 254 -6 303 8 l 254 -82 l 149 -82 l 149 -6 z "},"€":{"ha":488,"x_min":46,"x_max":442,"o":"m 288 -14 q 174 31 214 -14 q 133 149 133 76 l 133 326 l 46 326 l 46 444 l 133 444 l 133 475 l 46 475 l 46 594 l 133 594 l 133 767 q 174 885 133 840 q 288 931 214 931 q 401 885 361 931 q 442 767 442 840 l 442 611 l 324 611 l 324 765 q 316 803 324 789 q 288 817 308 817 q 258 803 265 817 q 251 765 251 790 l 251 594 l 367 594 l 367 475 l 251 475 l 251 444 l 367 444 l 367 326 l 251 326 l 251 151 q 258 111 251 125 q 288 97 265 97 q 317 111 310 97 q 324 151 324 125 l 324 300 l 442 300 l 442 149 q 401 31 442 76 q 288 -14 361 -14 z "},"%":{"ha":936,"x_min":46,"x_max":890,"o":"m 169 172 q 78 208 110 172 q 46 301 46 244 l 46 788 q 78 882 46 846 q 169 918 110 918 q 260 882 228 918 q 292 788 292 846 l 292 301 q 260 208 292 244 q 169 172 228 172 m 140 306 q 146 272 140 283 q 169 260 151 260 q 192 272 186 260 q 197 306 197 283 l 197 403 l 140 403 l 140 306 m 197 514 l 197 782 q 192 815 197 804 q 169 826 186 826 q 146 816 151 826 q 140 782 140 806 l 140 514 l 197 514 m 611 915 l 732 915 l 346 -1 l 225 -1 l 611 915 m 635 638 q 668 735 635 697 q 763 774 701 774 q 857 735 824 774 q 890 638 890 697 l 890 135 q 857 38 890 75 q 763 1 824 1 q 668 38 701 1 q 635 135 635 75 l 635 638 m 733 140 q 739 105 733 117 q 763 93 744 93 q 787 105 781 93 q 793 140 793 117 l 793 239 l 733 239 l 733 140 m 793 356 l 793 633 q 787 667 793 656 q 763 679 781 679 q 739 668 744 679 q 733 633 733 657 l 733 356 l 793 356 z "},"&":{"ha":953,"x_min":46,"x_max":907,"o":"m 346 0 q 197 30 265 0 q 87 118 128 60 q 46 260 46 176 q 82 394 46 331 q 190 497 118 458 q 363 526 263 535 q 303 624 322 581 q 285 715 285 668 q 319 831 285 786 q 402 897 353 876 q 499 917 451 917 q 601 892 550 917 q 688 815 653 867 q 722 689 722 764 l 722 599 l 604 599 l 604 689 q 573 780 604 760 q 494 800 542 800 q 424 781 451 800 q 396 719 396 763 q 413 639 396 671 q 471 556 429 607 l 907 0 l 781 0 l 603 217 q 521 55 594 110 q 346 0 447 0 m 165 260 q 210 148 165 182 q 329 114 256 114 q 444 150 399 114 q 489 263 489 186 q 442 374 489 329 q 325 418 394 418 q 212 377 258 418 q 165 260 165 336 z "},"(":{"ha":415,"x_min":46,"x_max":368,"o":"m 332 -18 q 194 61 261 -12 q 87 249 128 135 q 46 485 46 364 q 120 816 46 689 q 308 994 194 943 l 365 886 q 217 724 267 821 q 168 488 168 628 q 220 227 168 333 q 368 99 272 121 l 332 -18 z "},")":{"ha":413,"x_min":44,"x_max":367,"o":"m 44 99 q 192 227 140 121 q 244 488 244 333 q 195 724 244 628 q 47 886 146 821 l 104 994 q 292 816 218 943 q 367 485 367 689 q 326 249 367 364 q 218 61 285 135 q 81 -18 151 -12 l 44 99 z "},"{":{"ha":383,"x_min":46,"x_max":336,"o":"m 336 -54 q 222 -30 269 -57 q 149 45 174 -3 q 124 151 124 93 q 133 224 124 181 q 140 262 135 229 q 146 329 146 294 q 128 390 146 369 q 81 428 111 411 q 54 446 63 438 q 46 465 46 454 q 53 483 46 476 q 79 501 61 490 q 128 540 110 519 q 146 603 146 561 q 133 717 146 642 q 124 778 125 763 q 122 811 122 789 q 172 963 122 915 q 292 1006 222 1011 l 292 889 q 251 875 264 892 q 239 819 239 858 q 242 783 239 811 q 254 701 243 768 q 265 604 265 629 q 247 522 265 556 q 185 465 228 489 q 247 406 228 439 q 265 328 265 374 q 261 286 265 310 q 256 253 257 263 q 242 147 242 189 q 264 84 242 107 q 336 64 286 61 l 336 -54 z "},"|":{"ha":211,"x_min":46,"x_max":165,"o":"m 46 947 l 165 947 l 165 -35 l 46 -35 l 46 947 z "},"}":{"ha":383,"x_min":47,"x_max":338,"o":"m 47 64 q 119 84 97 61 q 142 147 142 107 q 128 253 142 189 q 122 286 126 263 q 118 328 118 310 q 137 406 118 374 q 199 465 156 439 q 137 522 156 489 q 118 604 118 556 q 129 701 118 629 q 142 783 140 768 q 144 819 144 811 q 132 875 144 858 q 92 889 119 892 l 92 1006 q 180 988 139 1010 q 244 913 221 965 q 260 778 267 860 q 250 717 258 763 q 238 603 238 642 q 256 540 238 561 q 304 501 274 519 q 330 483 322 490 q 338 465 338 476 q 329 446 338 454 q 303 428 321 438 q 255 390 272 411 q 238 329 238 369 q 243 262 238 294 q 250 224 249 229 q 260 151 260 181 q 235 45 260 93 q 162 -30 210 -3 q 47 -54 114 -57 l 47 64 z "},"[":{"ha":308,"x_min":46,"x_max":263,"o":"m 46 967 l 263 967 l 263 849 l 171 849 l 171 -82 l 263 -82 l 263 -200 l 46 -200 l 46 967 z "},"]":{"ha":308,"x_min":46,"x_max":263,"o":"m 46 -200 l 46 -82 l 138 -82 l 138 849 l 46 849 l 46 967 l 263 967 l 263 -200 l 46 -200 z "},"‚":{"ha":286,"x_min":46,"x_max":240,"o":"m 119 193 l 240 193 l 167 0 l 46 0 l 119 193 z "},"„":{"ha":422,"x_min":46,"x_max":376,"o":"m 119 193 l 240 193 l 167 0 l 46 0 l 119 193 m 256 193 l 376 193 l 303 0 l 182 0 l 256 193 z "},"•":{"ha":272,"x_min":46,"x_max":244,"o":"m 144 292 q 74 320 101 292 q 46 390 46 349 q 74 467 46 435 q 144 499 103 499 q 217 468 190 499 q 244 390 244 438 q 215 321 244 350 q 144 292 185 292 z "},"_":{"ha":618,"x_min":46,"x_max":571,"o":"m 46 186 l 571 186 l 571 68 l 46 68 l 46 186 z "},"–":{"ha":611,"x_min":46,"x_max":565,"o":"m 46 443 l 565 443 l 565 324 l 46 324 l 46 443 z "},"—":{"ha":721,"x_min":46,"x_max":674,"o":"m 46 442 l 674 442 l 674 322 l 46 322 l 46 442 z "},"¯":{"ha":501,"x_min":46,"x_max":456,"o":"m 46 940 l 456 940 l 456 821 l 46 821 l 46 940 z "},"¬":{"ha":719,"x_min":46,"x_max":672,"o":"m 554 322 l 46 322 l 46 442 l 672 442 l 672 175 l 554 175 l 554 322 z "},"™":{"ha":528,"x_min":46,"x_max":482,"o":"m 97 858 l 46 858 l 46 917 l 260 917 l 340 829 l 419 917 l 482 917 l 482 390 l 418 390 l 418 824 l 360 758 l 321 758 l 263 821 l 263 390 l 199 390 l 199 858 l 160 858 l 160 390 l 97 390 l 97 858 z "},"®":{"ha":456,"x_min":46,"x_max":410,"o":"m 225 238 q 97 282 149 239 q 46 417 46 325 l 46 757 q 73 846 46 810 q 142 899 100 882 q 228 917 183 917 q 314 899 272 917 q 383 846 356 882 q 410 757 410 810 l 410 417 q 358 282 410 325 q 225 238 306 239 m 110 426 q 226 300 110 303 q 346 426 346 303 l 346 749 q 310 828 346 801 q 228 854 274 854 q 146 828 182 854 q 110 749 110 801 l 110 426 m 160 793 l 219 793 q 276 774 256 793 q 297 726 297 756 l 297 628 q 283 585 297 599 q 297 538 297 572 l 297 363 l 244 363 l 244 538 q 224 560 244 560 l 215 560 l 215 363 l 160 363 l 160 793 m 215 610 q 240 613 235 610 q 244 628 244 615 l 244 731 q 239 742 244 740 q 215 744 233 744 l 215 610 z "},"©":{"ha":456,"x_min":46,"x_max":410,"o":"m 225 238 q 97 282 149 239 q 46 417 46 325 l 46 757 q 73 846 46 810 q 142 899 100 882 q 228 917 183 917 q 314 899 272 917 q 383 846 356 882 q 410 757 410 810 l 410 417 q 358 282 410 325 q 225 238 306 239 m 110 426 q 226 300 110 303 q 346 426 346 303 l 346 749 q 310 828 346 801 q 228 854 274 854 q 146 828 182 854 q 110 749 110 801 l 110 426 m 154 725 q 173 780 154 760 q 226 800 192 800 q 281 779 261 800 q 300 725 300 758 l 300 651 l 244 651 l 244 724 q 226 747 244 747 q 213 741 217 747 q 210 724 210 735 l 210 435 q 213 416 210 422 q 226 410 217 410 q 241 416 238 410 q 244 435 244 422 l 244 506 l 300 506 l 300 433 q 281 378 300 400 q 226 357 261 357 q 173 378 192 357 q 154 433 154 400 l 154 725 z "},"¤":{"ha":549,"x_min":46,"x_max":503,"o":"m 140 217 q 118 308 118 257 l 118 606 q 144 707 118 663 l 57 847 l 181 847 l 232 765 q 272 769 251 769 q 325 761 303 769 l 379 847 l 503 847 l 407 694 q 426 606 426 660 l 426 308 q 408 222 426 258 l 501 72 l 378 72 l 326 154 q 272 146 304 146 q 222 153 242 146 l 169 68 l 46 68 l 140 217 m 236 311 q 243 270 236 283 q 272 257 250 257 q 301 270 294 257 q 308 311 308 283 l 308 604 q 301 643 308 631 q 272 656 294 656 q 243 643 250 656 q 236 604 236 631 l 236 311 z "},"¢":{"ha":400,"x_min":46,"x_max":354,"o":"m 136 -1 q 69 56 92 17 q 46 149 46 94 l 46 767 q 69 861 46 822 q 136 918 92 900 l 136 1008 l 267 1008 l 267 918 q 332 860 310 900 q 354 767 354 821 l 354 611 l 236 611 l 236 760 q 229 802 236 788 q 200 817 222 817 q 171 802 178 817 q 164 760 164 788 l 164 154 q 171 112 164 126 q 200 97 178 97 q 229 112 222 97 q 236 154 236 126 l 236 300 l 354 300 l 354 149 q 332 56 354 96 q 267 -1 310 17 l 267 -99 l 136 -99 l 136 -1 z "},"£":{"ha":761,"x_min":46,"x_max":718,"o":"m 131 0 q 201 133 176 64 q 225 286 225 201 q 219 353 225 310 q 201 449 214 397 l 46 449 l 46 567 l 168 567 q 144 622 153 599 q 135 669 136 644 q 169 803 129 747 q 277 888 210 860 q 418 917 344 917 q 565 874 494 917 q 677 765 636 832 q 714 631 718 699 l 593 631 q 576 711 596 672 q 515 774 556 750 q 418 799 474 799 q 306 770 353 799 q 258 692 258 742 q 263 663 258 678 q 299 567 278 607 l 500 567 l 500 449 l 335 449 q 356 279 356 364 q 331 118 356 188 l 667 118 l 667 0 l 131 0 z "},"¥":{"ha":444,"x_min":36,"x_max":422,"o":"m 165 151 l 36 151 l 36 269 l 165 269 l 165 300 l 36 300 l 36 419 l 165 419 l 165 432 l 53 917 l 172 917 l 224 672 l 276 917 l 396 917 l 283 432 l 283 419 l 422 419 l 422 300 l 283 300 l 283 269 l 422 269 l 422 151 l 283 151 l 283 0 l 165 0 l 165 151 z "},"ƒ":{"ha":622,"x_min":46,"x_max":575,"o":"m 46 0 q 97 176 75 100 q 146 371 118 253 l 82 371 l 82 489 l 165 490 l 179 567 l 183 596 q 211 737 199 689 q 253 825 224 785 q 328 893 283 869 q 450 917 374 917 l 575 917 l 575 799 l 493 799 q 406 791 433 799 q 358 758 379 783 q 318 681 331 726 q 292 551 306 635 l 282 489 l 411 489 l 411 369 l 264 369 l 233 250 q 165 0 200 115 l 46 0 z "},"−":{"ha":481,"x_min":46,"x_max":433,"o":"m 46 485 l 433 485 l 433 365 l 46 365 l 46 485 z "},"±":{"ha":489,"x_min":67,"x_max":460,"o":"m 203 553 l 67 553 l 67 672 l 203 672 l 203 807 l 321 807 l 321 672 l 454 672 l 454 553 l 321 553 l 321 419 l 203 419 l 203 553 m 72 268 l 460 268 l 460 149 l 72 149 l 72 268 z "},"×":{"ha":451,"x_min":46,"x_max":404,"o":"m 142 467 l 46 564 l 129 647 l 226 551 l 321 647 l 404 564 l 310 468 l 404 374 l 319 289 l 225 383 l 131 289 l 47 372 l 142 467 z "},"÷":{"ha":481,"x_min":46,"x_max":433,"o":"m 46 485 l 433 485 l 433 365 l 46 365 l 46 485 m 244 188 q 190 210 211 188 q 168 264 168 232 q 190 323 168 299 q 244 347 213 347 q 301 324 279 347 q 322 264 322 301 q 299 210 322 233 q 244 188 276 188 m 244 507 q 190 529 211 507 q 168 583 168 551 q 190 642 168 618 q 244 667 213 667 q 301 644 279 667 q 322 583 322 621 q 299 530 322 553 q 244 507 276 507 z "},"¦":{"ha":211,"x_min":46,"x_max":165,"o":"m 46 407 l 165 407 l 165 -31 l 46 -31 l 46 407 m 46 931 l 165 931 l 165 558 l 46 558 l 46 931 z "},"…":{"ha":635,"x_min":46,"x_max":603,"o":"m 122 0 q 67 22 89 0 q 46 76 46 44 q 68 135 46 111 q 122 160 90 160 q 178 137 157 160 q 200 76 200 114 q 177 23 200 46 q 122 0 154 0 m 328 0 q 273 22 294 0 q 251 76 251 44 q 274 135 251 111 q 328 160 296 160 q 384 137 363 160 q 406 76 406 114 q 383 23 406 46 q 328 0 360 0 m 525 0 q 470 22 492 0 q 449 76 449 44 q 471 135 449 111 q 525 160 493 160 q 581 137 560 160 q 603 76 603 114 q 580 23 603 46 q 525 0 557 0 z "},"·":{"ha":232,"x_min":46,"x_max":200,"o":"m 122 331 q 67 353 89 331 q 46 407 46 375 q 68 466 46 442 q 122 490 90 490 q 178 467 157 490 q 200 407 200 444 q 177 353 200 376 q 122 331 154 331 z "},"¡":{"ha":222,"x_min":46,"x_max":176,"o":"m 135 576 l 150 -176 l 81 -176 l 86 576 l 135 576 m 46 676 q 65 721 46 701 q 111 740 83 740 q 156 720 136 740 q 176 676 176 700 q 158 631 176 650 q 111 611 140 611 q 65 631 83 611 q 46 676 46 651 z "},"¿":{"ha":406,"x_min":46,"x_max":360,"o":"m 353 392 q 312 278 353 324 q 203 208 271 233 q 173 186 182 200 q 164 149 164 172 l 164 -18 q 170 -60 164 -46 q 199 -74 176 -74 q 228 -60 221 -74 q 235 -18 235 -46 l 235 132 l 354 132 l 354 -22 q 313 -142 354 -96 q 199 -187 272 -187 q 86 -142 126 -187 q 46 -22 46 -96 l 46 149 q 83 256 46 215 q 193 326 119 296 q 226 351 217 336 q 235 392 235 367 l 235 579 l 353 579 l 353 392 m 228 678 q 248 723 228 703 q 294 743 268 743 q 340 723 321 743 q 360 678 360 703 q 340 633 360 653 q 294 613 321 613 q 246 632 264 613 q 228 678 228 651 z "},"°":{"ha":332,"x_min":46,"x_max":285,"o":"m 165 657 q 78 697 110 657 q 46 786 46 738 q 78 876 46 836 q 167 917 110 917 q 253 876 222 917 q 285 786 285 836 q 253 697 285 738 q 165 657 222 657 m 129 786 q 139 761 129 774 q 165 749 149 749 q 192 761 182 749 q 203 786 203 774 q 192 813 203 801 q 165 825 182 825 q 139 813 149 825 q 129 786 129 801 z "},"⁄":{"ha":600,"x_min":46,"x_max":553,"o":"m 432 917 l 553 917 l 167 0 l 46 0 l 432 917 z "},"‰":{"ha":1256,"x_min":46,"x_max":1208,"o":"m 174 144 q 79 181 113 144 q 46 278 46 218 l 46 781 q 79 879 46 842 q 174 917 113 917 q 267 878 233 917 q 300 781 300 840 l 300 278 q 267 181 300 218 q 174 144 233 144 m 143 283 q 149 248 143 260 q 174 236 156 236 q 197 248 192 236 q 203 283 203 260 l 203 382 l 143 382 l 143 283 m 203 499 l 203 776 q 197 811 203 800 q 174 822 192 822 q 149 810 156 822 q 143 776 143 799 l 143 499 l 203 499 m 625 915 l 746 915 l 360 -1 l 239 -1 l 625 915 m 663 644 q 695 743 663 706 q 789 781 728 781 q 883 742 850 781 q 917 644 917 704 l 917 142 q 883 45 917 82 q 789 8 850 8 q 695 45 728 8 q 663 142 663 82 l 663 644 m 760 147 q 765 112 760 124 q 789 100 771 100 q 813 112 807 100 q 819 147 819 124 l 819 246 l 760 246 l 760 147 m 819 363 l 819 640 q 813 674 819 663 q 789 686 807 686 q 765 675 771 686 q 760 640 760 664 l 760 363 l 819 363 m 954 644 q 987 743 954 706 q 1081 781 1019 781 q 1175 742 1142 781 q 1208 644 1208 704 l 1208 142 q 1175 45 1208 82 q 1081 8 1142 8 q 987 45 1019 8 q 954 142 954 82 l 954 644 m 1051 147 q 1057 112 1051 124 q 1081 100 1063 100 q 1105 112 1099 100 q 1111 147 1111 124 l 1111 246 l 1051 246 l 1051 147 m 1111 363 l 1111 640 q 1105 674 1111 663 q 1081 686 1099 686 q 1057 675 1063 686 q 1051 640 1051 664 l 1051 363 l 1111 363 z "},"¶":{"ha":560,"x_min":46,"x_max":514,"o":"m 236 185 q 201 179 214 179 q 87 224 128 179 q 46 343 46 269 l 46 754 q 87 872 46 826 q 201 917 128 917 q 315 872 275 917 q 354 754 354 826 l 354 0 l 236 0 l 236 185 m 165 350 q 172 308 165 322 q 201 293 179 293 q 236 333 232 293 l 236 747 q 230 790 236 775 q 201 806 224 806 q 172 790 179 806 q 165 747 165 775 l 165 350 m 394 917 l 514 917 l 514 0 l 394 0 l 394 917 z "},"§":{"ha":401,"x_min":46,"x_max":356,"o":"m 200 -104 q 86 -59 126 -104 q 46 60 46 -14 l 46 174 l 164 174 l 164 64 q 171 24 164 38 q 200 10 178 10 q 229 24 222 10 q 236 64 236 38 l 236 163 q 228 197 236 186 q 196 215 221 208 q 47 392 47 251 l 47 469 q 81 579 47 538 q 47 689 47 624 l 47 767 q 88 885 47 840 q 201 931 128 931 q 315 885 275 931 q 356 767 356 840 l 356 663 l 236 663 l 236 761 q 230 803 236 789 q 201 817 224 817 q 172 803 179 817 q 165 761 165 789 l 165 688 q 177 647 165 661 q 214 624 189 633 q 322 563 289 594 q 354 467 354 532 l 354 357 q 328 257 354 297 q 354 169 354 225 l 354 60 q 314 -59 354 -14 q 200 -104 274 -104 m 165 399 q 206 335 165 351 l 225 328 q 236 374 236 343 l 236 460 q 228 495 236 483 q 199 513 221 507 l 185 515 q 165 468 165 507 l 165 399 z "},"†":{"ha":390,"x_min":46,"x_max":343,"o":"m 135 799 l 46 799 l 46 917 l 135 917 l 135 1000 l 253 1000 l 253 917 l 343 917 l 343 799 l 253 799 l 253 404 l 135 404 l 135 799 z "},"‡":{"ha":390,"x_min":46,"x_max":343,"o":"m 135 636 l 46 636 l 46 754 l 135 754 l 135 799 l 46 799 l 46 917 l 135 917 l 135 1000 l 253 1000 l 253 917 l 343 917 l 343 799 l 253 799 l 253 754 l 343 754 l 343 636 l 253 636 l 253 404 l 135 404 l 135 636 z "},"~":{"ha":660,"x_min":46,"x_max":614,"o":"m 46 349 q 110 503 61 439 q 224 567 160 567 q 297 550 267 567 q 364 501 328 533 q 406 468 389 479 q 443 456 424 457 q 483 471 471 456 q 513 533 496 486 l 614 511 q 461 338 563 338 q 394 352 421 338 q 332 397 368 367 q 281 435 304 422 q 229 450 258 449 q 185 422 201 450 q 144 328 169 393 l 46 349 z "},"‹":{"ha":525,"x_min":46,"x_max":478,"o":"m 46 439 l 346 697 l 478 697 l 181 440 l 460 179 l 329 179 l 46 439 z "},"›":{"ha":525,"x_min":47,"x_max":479,"o":"m 65 179 l 344 440 l 47 697 l 179 697 l 479 439 l 196 179 l 65 179 z "},"«":{"ha":967,"x_min":46,"x_max":919,"o":"m 46 439 l 346 697 l 478 697 l 181 440 l 460 179 l 329 179 l 46 439 m 488 432 l 788 690 l 919 690 l 622 433 l 901 172 l 771 172 l 488 432 z "},"»":{"ha":967,"x_min":47,"x_max":921,"o":"m 507 167 l 786 428 l 489 685 l 621 685 l 921 426 l 638 167 l 507 167 m 179 678 l 479 419 l 196 160 l 65 160 l 344 421 l 47 678 l 179 678 z "},"`":{"ha":293,"x_min":46,"x_max":246,"o":"m 46 843 l 167 843 l 246 650 l 125 650 l 46 843 z "},"¨":{"ha":383,"x_min":46,"x_max":332,"o":"m 114 704 q 65 724 85 704 q 46 772 46 743 q 65 826 46 804 q 114 847 85 847 q 164 826 144 847 q 183 772 183 806 q 163 724 183 744 q 114 704 142 704 m 193 774 q 213 827 193 806 q 263 849 233 849 q 313 828 294 849 q 332 774 332 807 q 311 725 332 746 q 263 704 290 704 q 213 724 233 704 q 193 774 193 744 z "},"´":{"ha":293,"x_min":47,"x_max":247,"o":"m 47 650 l 126 843 l 247 843 l 168 650 l 47 650 z "},"¸":{"ha":386,"x_min":46,"x_max":339,"o":"m 46 -75 q 100 -78 69 -75 l 146 -79 q 192 -74 178 -79 q 214 -53 207 -68 q 217 -39 217 -44 q 92 31 217 3 l 167 165 l 285 165 l 240 78 q 315 27 290 58 q 339 -40 339 -4 q 278 -149 339 -115 q 125 -182 218 -182 q 46 -176 96 -182 l 46 -75 z "},"ˆ":{"ha":399,"x_min":46,"x_max":351,"o":"m 201 943 l 351 685 l 228 686 l 200 740 l 169 685 l 46 685 l 201 943 z "},"ˇ":{"ha":465,"x_min":46,"x_max":351,"o":"m 169 943 l 200 888 l 228 942 l 351 943 l 201 685 l 46 943 l 169 943 z "},"˘":{"ha":469,"x_min":46,"x_max":424,"o":"m 233 749 q 113 799 164 749 q 46 936 61 849 l 163 936 q 233 861 186 861 q 275 878 257 861 q 304 936 293 894 l 424 936 q 351 797 399 846 q 233 749 304 749 z "},"˙":{"ha":254,"x_min":46,"x_max":208,"o":"m 126 754 q 69 778 93 754 q 46 835 46 803 q 70 891 46 865 q 126 917 94 917 q 185 893 163 917 q 208 835 208 869 q 183 778 208 803 q 126 754 158 754 z "},"˚":{"ha":332,"x_min":46,"x_max":285,"o":"m 165 656 q 78 696 110 656 q 46 785 46 736 q 78 875 46 835 q 167 915 110 915 q 253 875 222 915 q 285 785 285 835 q 253 696 285 736 q 165 656 222 656 m 129 785 q 139 760 129 772 q 165 747 149 747 q 192 760 182 747 q 203 785 203 772 q 192 812 203 800 q 165 824 182 824 q 139 812 149 824 q 129 785 129 800 z "},"˛":{"ha":360,"x_min":46,"x_max":314,"o":"m 314 -103 q 186 -137 246 -137 q 84 -103 122 -137 q 46 -18 46 -68 q 88 81 46 35 q 214 147 129 128 l 238 139 l 261 57 q 158 -11 158 25 q 186 -33 158 -33 q 289 -1 215 -33 l 314 -103 z "},"˝":{"ha":447,"x_min":113,"x_max":333,"o":"m 206 917 l 333 917 l 244 715 l 113 715 l 206 917 z "},"ª":{"ha":313,"x_min":46,"x_max":265,"o":"m 156 396 q 74 428 103 396 q 46 511 46 460 l 46 638 q 74 722 46 690 q 156 754 103 754 l 182 754 l 182 800 q 177 828 182 818 q 156 838 172 838 q 135 828 140 838 q 131 800 131 818 l 131 774 l 46 774 l 46 801 q 74 886 46 854 q 156 918 103 918 q 237 886 208 918 q 265 801 265 854 l 265 511 q 237 428 265 460 q 156 396 208 396 m 131 514 q 136 484 131 494 q 156 474 142 474 q 177 484 172 474 q 182 514 182 494 l 182 674 l 156 674 q 135 665 140 674 q 131 636 131 656 l 131 514 z "},"¹":{"ha":231,"x_min":46,"x_max":185,"o":"m 111 824 l 74 807 l 46 871 l 111 901 l 111 921 l 185 921 l 185 347 l 111 347 l 111 824 z "},"º":{"ha":264,"x_min":46,"x_max":217,"o":"m 132 513 q 68 538 90 513 q 46 603 46 563 l 46 828 q 68 893 46 868 q 132 918 90 918 q 194 893 172 918 q 217 828 217 868 l 217 603 q 194 538 217 563 q 132 513 172 513 m 111 606 q 115 582 111 590 q 132 574 119 574 q 147 582 143 574 q 151 606 151 590 l 151 825 q 147 848 151 840 q 132 856 143 856 q 115 848 119 856 q 111 825 111 840 l 111 606 z "},"¼":{"ha":757,"x_min":46,"x_max":711,"o":"m 117 814 l 75 797 l 46 865 l 117 897 l 117 918 l 194 918 l 194 307 l 117 307 l 117 814 m 454 917 l 560 917 l 222 -3 l 117 -3 l 454 917 m 460 575 l 538 575 l 538 258 l 576 258 l 576 340 l 654 340 l 654 258 l 711 258 l 711 179 l 654 179 l 654 -12 l 576 -12 l 576 179 l 460 179 l 460 575 z "},"½":{"ha":660,"x_min":46,"x_max":614,"o":"m 117 817 l 75 800 l 46 868 l 117 900 l 117 921 l 194 921 l 194 310 l 117 310 l 117 817 m 439 917 l 538 917 l 224 0 l 125 0 l 439 917 m 408 514 q 435 593 408 563 q 513 624 463 624 q 588 593 561 624 q 614 514 614 563 l 614 363 q 543 251 614 289 q 505 224 519 239 q 490 182 490 208 l 490 81 l 607 81 l 607 3 l 413 3 l 413 175 q 439 260 413 226 q 508 315 465 293 q 535 363 535 331 l 535 511 q 531 538 535 529 q 513 547 526 547 q 492 538 497 547 q 488 511 488 529 l 488 424 l 408 424 l 408 514 z "},"¾":{"ha":799,"x_min":46,"x_max":753,"o":"m 154 288 q 77 318 104 288 q 50 397 50 349 l 50 488 l 131 488 l 131 401 q 135 374 131 383 q 154 364 140 364 q 173 374 168 364 q 178 401 178 383 l 178 546 q 169 572 178 567 q 136 578 160 578 l 136 649 q 163 656 154 649 q 172 682 172 663 l 172 806 q 168 833 172 824 q 150 842 164 842 q 130 833 135 842 q 125 806 125 824 l 125 718 l 46 718 l 46 808 q 73 888 46 857 q 150 918 100 918 q 225 888 199 918 q 251 808 251 857 l 251 665 q 240 615 251 638 q 256 569 256 593 l 256 397 q 229 318 256 349 q 154 288 203 288 m 485 917 l 579 917 l 278 -3 l 183 -3 l 485 917 m 500 575 l 579 575 l 579 258 l 617 258 l 617 340 l 696 340 l 696 258 l 753 258 l 753 179 l 696 179 l 696 -12 l 617 -12 l 617 179 l 500 179 l 500 575 z "},"²":{"ha":297,"x_min":46,"x_max":251,"o":"m 50 469 q 76 554 50 521 q 146 610 103 588 q 172 657 172 625 l 172 806 q 168 833 172 824 q 150 842 164 842 q 130 833 135 842 q 125 806 125 824 l 125 718 l 46 718 l 46 808 q 73 888 46 857 q 150 918 100 918 q 225 888 199 918 q 251 808 251 857 l 251 657 q 181 546 251 583 q 142 518 157 533 q 128 476 128 503 l 128 375 l 244 375 l 244 297 l 50 297 l 50 469 z "},"³":{"ha":301,"x_min":46,"x_max":256,"o":"m 154 288 q 77 318 104 288 q 50 397 50 349 l 50 488 l 131 488 l 131 401 q 135 374 131 383 q 154 364 140 364 q 173 374 168 364 q 178 401 178 383 l 178 546 q 169 572 178 567 q 136 578 160 578 l 136 649 q 163 656 154 649 q 172 682 172 663 l 172 806 q 168 833 172 824 q 150 842 164 842 q 130 833 135 842 q 125 806 125 824 l 125 718 l 46 718 l 46 808 q 73 888 46 857 q 150 918 100 918 q 225 888 199 918 q 251 808 251 857 l 251 665 q 240 615 251 638 q 256 569 256 593 l 256 397 q 229 318 256 349 q 154 288 203 288 z "},"Á":{"ha":475,"x_min":46,"x_max":428,"o":"m 182 917 l 293 917 l 428 0 l 314 0 l 299 100 l 176 100 l 161 0 l 46 0 l 182 917 m 283 207 l 238 518 l 192 207 l 283 207 z "},"Ă":{"ha":475,"x_min":46,"x_max":432,"o":"m 182 917 l 293 917 l 428 0 l 314 0 l 299 100 l 176 100 l 161 0 l 46 0 l 182 917 m 283 207 l 238 518 l 192 207 l 283 207 z "},"Â":{"ha":475,"x_min":46,"x_max":428,"o":"m 182 917 l 293 917 l 428 0 l 314 0 l 299 100 l 176 100 l 161 0 l 46 0 l 182 917 m 283 207 l 238 518 l 192 207 l 283 207 z "},"Ä":{"ha":475,"x_min":46,"x_max":428,"o":"m 182 917 l 293 917 l 428 0 l 314 0 l 299 100 l 176 100 l 161 0 l 46 0 l 182 917 m 283 207 l 238 518 l 192 207 l 283 207 m 150 964 q 92 988 115 964 q 69 1044 69 1011 q 92 1106 69 1081 q 150 1131 115 1131 q 208 1106 186 1131 q 231 1044 231 1082 q 206 988 231 1011 q 150 964 182 964 m 243 1046 q 266 1108 243 1082 q 322 1133 289 1133 q 382 1108 360 1133 q 404 1046 404 1083 q 380 989 404 1013 q 322 965 356 965 q 266 989 289 965 q 243 1046 243 1013 z "},"À":{"ha":475,"x_min":46,"x_max":428,"o":"m 182 917 l 293 917 l 428 0 l 314 0 l 299 100 l 176 100 l 161 0 l 46 0 l 182 917 m 283 207 l 238 518 l 192 207 l 283 207 z "},"Ā":{"ha":475,"x_min":46,"x_max":428,"o":"m 182 917 l 293 917 l 428 0 l 314 0 l 299 100 l 176 100 l 161 0 l 46 0 l 182 917 m 283 207 l 238 518 l 192 207 l 283 207 m 71 1114 l 417 1114 l 417 994 l 71 994 l 71 1114 z "},"Ą":{"ha":489,"x_min":46,"x_max":472,"o":"m 182 917 l 293 917 l 428 0 l 411 0 q 341 -31 365 -14 q 317 -65 317 -49 q 344 -87 317 -87 q 447 -56 374 -87 l 472 -157 q 344 -192 404 -192 q 242 -157 281 -192 q 204 -72 204 -122 q 228 6 204 -32 q 303 69 253 43 l 299 100 l 176 100 l 161 0 l 46 0 l 182 917 m 283 207 l 238 518 l 192 207 l 283 207 z "},"Å":{"ha":475,"x_min":46,"x_max":428,"o":"m 182 917 l 293 917 l 428 0 l 314 0 l 299 100 l 176 100 l 161 0 l 46 0 l 182 917 m 283 207 l 238 518 l 192 207 l 283 207 z "},"Ã":{"ha":475,"x_min":17,"x_max":453,"o":"m 182 917 l 293 917 l 428 0 l 314 0 l 299 100 l 176 100 l 161 0 l 46 0 l 182 917 m 283 207 l 238 518 l 192 207 l 283 207 z "},"Æ":{"ha":628,"x_min":46,"x_max":582,"o":"m 176 917 l 283 917 l 319 660 l 319 917 l 582 917 l 582 807 l 438 807 l 438 529 l 558 529 l 558 421 l 438 421 l 438 108 l 582 108 l 582 0 l 304 0 l 289 100 l 172 100 l 157 0 l 46 0 l 176 917 m 274 207 l 231 518 l 186 207 l 274 207 z "},"Ć":{"ha":400,"x_min":46,"x_max":354,"o":"m 200 -14 q 86 31 126 -14 q 46 149 46 76 l 46 767 q 86 885 46 840 q 200 931 126 931 q 314 885 274 931 q 354 767 354 840 l 354 611 l 236 611 l 236 765 q 228 803 236 789 q 200 817 221 817 q 171 803 178 817 q 164 765 164 790 l 164 151 q 171 111 164 125 q 200 97 178 97 q 229 111 222 97 q 236 151 236 125 l 236 300 l 354 300 l 354 149 q 314 31 354 76 q 200 -14 274 -14 z "},"Č":{"ha":400,"x_min":42,"x_max":354,"o":"m 200 -14 q 86 31 126 -14 q 46 149 46 76 l 46 767 q 86 885 46 840 q 200 931 126 931 q 314 885 274 931 q 354 767 354 840 l 354 611 l 236 611 l 236 765 q 228 803 236 789 q 200 817 221 817 q 171 803 178 817 q 164 765 164 790 l 164 151 q 171 111 164 125 q 200 97 178 97 q 229 111 222 97 q 236 151 236 125 l 236 300 l 354 300 l 354 149 q 314 31 354 76 q 200 -14 274 -14 z "},"Ç":{"ha":400,"x_min":40,"x_max":354,"o":"m 40 -182 q 94 -185 64 -182 l 140 -186 q 187 -181 172 -186 q 208 -160 201 -175 q 211 -146 211 -151 q 86 -76 211 -104 l 129 0 q 67 57 89 18 q 46 149 46 96 l 46 767 q 86 885 46 840 q 200 931 126 931 q 314 885 274 931 q 354 767 354 840 l 354 611 l 236 611 l 236 765 q 228 803 236 789 q 200 817 221 817 q 171 803 178 817 q 164 765 164 790 l 164 151 q 171 111 164 125 q 200 97 178 97 q 229 111 222 97 q 236 151 236 125 l 236 300 l 354 300 l 354 149 q 326 47 354 89 q 246 -8 299 6 l 235 -29 q 309 -80 285 -49 q 333 -147 333 -111 q 273 -256 333 -222 q 119 -289 213 -289 q 40 -283 90 -289 l 40 -182 z "},"Ċ":{"ha":400,"x_min":46,"x_max":354,"o":"m 200 -14 q 86 31 126 -14 q 46 149 46 76 l 46 767 q 86 885 46 840 q 200 931 126 931 q 314 885 274 931 q 354 767 354 840 l 354 611 l 236 611 l 236 765 q 228 803 236 789 q 200 817 221 817 q 171 803 178 817 q 164 765 164 790 l 164 151 q 171 111 164 125 q 200 97 178 97 q 229 111 222 97 q 236 151 236 125 l 236 300 l 354 300 l 354 149 q 314 31 354 76 q 200 -14 274 -14 z "},"Ð":{"ha":517,"x_min":46,"x_max":471,"o":"m 165 417 l 46 417 l 46 536 l 165 536 l 165 917 l 290 917 q 429 877 388 917 q 471 760 471 838 l 471 157 q 429 39 471 78 q 290 0 388 0 l 165 0 l 165 417 m 283 108 q 331 114 315 108 q 350 128 346 119 q 354 157 354 138 l 354 760 q 342 797 354 786 q 283 807 329 807 l 283 536 l 342 536 l 342 417 l 283 417 l 283 108 z "},"Ď":{"ha":397,"x_min":18,"x_max":351,"o":"m 46 917 l 171 917 q 310 877 268 917 q 351 760 351 838 l 351 157 q 310 39 351 78 q 171 0 268 0 l 46 0 l 46 917 m 164 108 q 211 114 196 108 q 231 128 226 119 q 235 157 235 138 l 235 760 q 222 797 235 786 q 164 807 210 807 l 164 108 z "},"Đ":{"ha":488,"x_min":46,"x_max":471,"o":"m 165 417 l 46 417 l 46 536 l 165 536 l 165 917 l 290 917 q 429 877 388 917 q 471 760 471 838 l 471 157 q 429 39 471 78 q 290 0 388 0 l 165 0 l 165 417 m 283 108 q 331 114 315 108 q 350 128 346 119 q 354 157 354 138 l 354 760 q 342 797 354 786 q 283 807 329 807 l 283 536 l 342 536 l 342 417 l 283 417 l 283 108 z "},"É":{"ha":354,"x_min":46,"x_max":322,"o":"m 46 917 l 308 917 l 308 807 l 164 807 l 164 529 l 285 529 l 285 421 l 164 421 l 164 108 l 308 108 l 308 0 l 46 0 l 46 917 z "},"Ě":{"ha":382,"x_min":43,"x_max":349,"o":"m 64 917 l 326 917 l 326 807 l 182 807 l 182 529 l 303 529 l 303 421 l 182 421 l 182 108 l 326 108 l 326 0 l 64 0 l 64 917 z "},"Ê":{"ha":382,"x_min":42,"x_max":347,"o":"m 65 917 l 328 917 l 328 807 l 183 807 l 183 529 l 304 529 l 304 421 l 183 421 l 183 108 l 328 108 l 328 0 l 65 0 l 65 917 z "},"Ë":{"ha":401,"x_min":36,"x_max":371,"o":"m 71 917 l 333 917 l 333 807 l 189 807 l 189 529 l 310 529 l 310 421 l 189 421 l 189 108 l 333 108 l 333 0 l 71 0 l 71 917 m 117 943 q 59 967 82 943 q 36 1024 36 990 q 59 1085 36 1060 q 117 1110 82 1110 q 175 1085 153 1110 q 197 1024 197 1061 q 173 967 197 990 q 117 943 149 943 m 210 1025 q 233 1087 210 1061 q 289 1113 256 1113 q 349 1088 326 1113 q 371 1025 371 1063 q 347 968 371 992 q 289 944 322 944 q 233 968 256 944 q 210 1025 210 992 z "},"Ė":{"ha":354,"x_min":46,"x_max":308,"o":"m 46 917 l 308 917 l 308 807 l 164 807 l 164 529 l 285 529 l 285 421 l 164 421 l 164 108 l 308 108 l 308 0 l 46 0 l 46 917 z "},"È":{"ha":368,"x_min":56,"x_max":321,"o":"m 58 917 l 321 917 l 321 807 l 176 807 l 176 529 l 297 529 l 297 421 l 176 421 l 176 108 l 321 108 l 321 0 l 58 0 l 58 917 z "},"Ē":{"ha":354,"x_min":46,"x_max":314,"o":"m 46 917 l 308 917 l 308 807 l 164 807 l 164 529 l 285 529 l 285 421 l 164 421 l 164 108 l 308 108 l 308 0 l 46 0 l 46 917 m 53 1093 l 314 1093 l 314 974 l 53 974 l 53 1093 z "},"Ę":{"ha":399,"x_min":46,"x_max":353,"o":"m 46 917 l 308 917 l 308 807 l 164 807 l 164 529 l 285 529 l 285 421 l 164 421 l 164 108 l 308 108 l 308 0 l 288 0 q 197 -64 197 -29 q 225 -86 197 -86 q 328 -54 254 -86 l 353 -156 q 225 -190 285 -190 q 123 -156 161 -190 q 85 -71 85 -121 q 104 0 85 -36 l 46 0 l 46 917 z "},"Ğ":{"ha":400,"x_min":3,"x_max":381,"o":"m 200 -14 q 86 31 126 -14 q 46 149 46 76 l 46 767 q 86 885 46 840 q 200 931 126 931 q 314 885 274 931 q 354 765 354 839 l 354 611 l 236 611 l 236 763 q 229 803 236 789 q 200 817 222 817 q 171 803 178 817 q 164 763 164 789 l 164 151 q 171 111 164 125 q 200 97 178 97 q 229 111 222 97 q 236 151 236 125 l 236 421 l 199 421 l 199 529 l 354 529 l 354 147 q 314 31 354 75 q 200 -14 274 -14 z "},"Ģ":{"ha":400,"x_min":46,"x_max":354,"o":"m 200 -14 q 86 31 126 -14 q 46 149 46 76 l 46 767 q 86 885 46 840 q 200 931 126 931 q 314 885 274 931 q 354 765 354 839 l 354 611 l 236 611 l 236 763 q 229 803 236 789 q 200 817 222 817 q 171 803 178 817 q 164 763 164 789 l 164 151 q 171 111 164 125 q 200 97 178 97 q 229 111 222 97 q 236 151 236 125 l 236 421 l 199 421 l 199 529 l 354 529 l 354 147 q 314 31 354 75 q 200 -14 274 -14 z "},"Ġ":{"ha":400,"x_min":46,"x_max":354,"o":"m 200 -14 q 86 31 126 -14 q 46 149 46 76 l 46 767 q 86 885 46 840 q 200 931 126 931 q 314 885 274 931 q 354 765 354 839 l 354 611 l 236 611 l 236 763 q 229 803 236 789 q 200 817 222 817 q 171 803 178 817 q 164 763 164 789 l 164 151 q 171 111 164 125 q 200 97 178 97 q 229 111 222 97 q 236 151 236 125 l 236 421 l 199 421 l 199 529 l 354 529 l 354 147 q 314 31 354 75 q 200 -14 274 -14 z "},"Ħ":{"ha":582,"x_min":65,"x_max":517,"o":"m 119 624 l 65 624 l 65 732 l 119 732 l 119 917 l 239 917 l 239 732 l 343 732 l 343 917 l 461 917 l 461 732 l 517 732 l 517 624 l 461 624 l 461 0 l 343 0 l 343 421 l 239 421 l 239 0 l 119 0 l 119 624 m 343 529 l 343 624 l 239 624 l 239 529 l 343 529 z "},"Í":{"ha":304,"x_min":58,"x_max":258,"o":"m 65 917 l 183 917 l 183 0 l 65 0 l 65 917 z "},"Î":{"ha":399,"x_min":46,"x_max":351,"o":"m 146 917 l 264 917 l 264 0 l 146 0 l 146 917 z "},"Ï":{"ha":432,"x_min":46,"x_max":381,"o":"m 165 917 l 283 917 l 283 0 l 165 0 l 165 917 m 126 946 q 69 969 92 946 q 46 1026 46 993 q 69 1088 46 1063 q 126 1113 92 1113 q 185 1088 163 1113 q 207 1026 207 1064 q 183 969 207 993 q 126 946 158 946 m 219 1028 q 242 1090 219 1064 q 299 1115 265 1115 q 358 1090 336 1115 q 381 1028 381 1065 q 356 971 381 994 q 299 947 332 947 q 242 971 265 947 q 219 1028 219 994 z "},"İ":{"ha":254,"x_min":46,"x_max":208,"o":"m 64 917 l 182 917 l 182 0 l 64 0 l 64 917 m 126 944 q 69 969 93 944 q 46 1025 46 993 q 70 1081 46 1056 q 126 1107 94 1107 q 185 1083 163 1107 q 208 1025 208 1060 q 183 969 208 993 q 126 944 158 944 z "},"Ì":{"ha":293,"x_min":46,"x_max":246,"o":"m 119 917 l 238 917 l 238 0 l 119 0 l 119 917 z "},"Ī":{"ha":439,"x_min":46,"x_max":392,"o":"m 153 917 l 271 917 l 271 0 l 153 0 l 153 917 m 46 1093 l 392 1093 l 392 974 l 46 974 l 46 1093 z "},"Į":{"ha":365,"x_min":18,"x_max":286,"o":"m 286 -156 q 158 -190 218 -190 q 56 -156 94 -190 q 18 -71 18 -121 q 44 9 18 -29 q 122 72 69 47 l 122 917 l 240 917 l 240 0 l 221 0 q 131 -64 131 -29 q 158 -86 131 -86 q 261 -54 188 -86 l 286 -156 z "},"Ķ":{"ha":461,"x_min":46,"x_max":415,"o":"m 46 917 l 165 917 l 163 478 l 282 917 l 401 917 l 229 336 l 415 0 l 293 0 l 165 239 l 165 0 l 46 0 l 46 917 z "},"Ĺ":{"ha":354,"x_min":46,"x_max":339,"o":"m 46 917 l 164 917 l 164 108 l 308 108 l 308 0 l 46 0 l 46 917 z "},"Ľ":{"ha":382,"x_min":63,"x_max":368,"o":"m 67 917 l 185 917 l 185 108 l 329 108 l 329 0 l 67 0 l 67 917 z "},"Ļ":{"ha":354,"x_min":46,"x_max":308,"o":"m 46 917 l 164 917 l 164 108 l 308 108 l 308 0 l 46 0 l 46 917 z "},"Ł":{"ha":499,"x_min":46,"x_max":451,"o":"m 178 453 l 88 419 l 46 532 l 178 581 l 178 917 l 296 917 l 296 624 l 410 665 l 451 553 l 296 496 l 296 108 l 440 108 l 440 0 l 178 0 l 178 453 z "},"Ń":{"ha":439,"x_min":46,"x_max":393,"o":"m 46 917 l 164 917 l 164 742 l 276 479 l 276 917 l 393 917 l 393 0 l 276 0 l 276 217 l 164 471 l 164 0 l 46 0 l 46 917 z "},"Ň":{"ha":439,"x_min":46,"x_max":393,"o":"m 46 917 l 164 917 l 164 742 l 276 479 l 276 917 l 393 917 l 393 0 l 276 0 l 276 217 l 164 471 l 164 0 l 46 0 l 46 917 z "},"Ņ":{"ha":439,"x_min":46,"x_max":393,"o":"m 46 917 l 164 917 l 164 742 l 276 479 l 276 917 l 393 917 l 393 0 l 276 0 l 276 217 l 164 471 l 164 0 l 46 0 l 46 917 z "},"Ñ":{"ha":469,"x_min":13,"x_max":449,"o":"m 64 917 l 182 917 l 182 742 l 294 479 l 294 917 l 411 917 l 411 0 l 294 0 l 294 217 l 182 471 l 182 0 l 64 0 l 64 917 z "},"Ŋ":{"ha":439,"x_min":46,"x_max":393,"o":"m 156 -76 q 244 -55 211 -79 q 276 15 276 -31 l 276 189 l 164 443 l 164 0 l 46 0 l 46 917 l 164 917 l 164 742 l 276 479 l 276 917 l 393 917 l 393 13 q 361 -99 393 -47 q 274 -178 329 -150 q 156 -203 219 -207 l 156 -76 z "},"Ó":{"ha":400,"x_min":46,"x_max":354,"o":"m 200 -4 q 86 41 126 -4 q 46 158 46 86 l 46 753 q 86 872 46 826 q 200 917 126 917 q 314 872 274 917 q 354 753 354 826 l 354 158 q 314 41 354 86 q 200 -4 274 -4 m 164 164 q 171 122 164 136 q 200 107 178 107 q 229 122 222 107 q 236 164 236 136 l 236 749 q 229 789 236 775 q 200 803 222 803 q 171 789 178 803 q 164 749 164 775 l 164 164 z "},"Ô":{"ha":400,"x_min":39,"x_max":354,"o":"m 200 -4 q 86 41 126 -4 q 46 158 46 86 l 46 753 q 86 872 46 826 q 200 917 126 917 q 314 872 274 917 q 354 753 354 826 l 354 158 q 314 41 354 86 q 200 -4 274 -4 m 164 164 q 171 122 164 136 q 200 107 178 107 q 229 122 222 107 q 236 164 236 136 l 236 749 q 229 789 236 775 q 200 803 222 803 q 171 789 178 803 q 164 749 164 775 l 164 164 z "},"Ö":{"ha":400,"x_min":28,"x_max":363,"o":"m 200 -4 q 86 41 126 -4 q 46 158 46 86 l 46 753 q 86 872 46 826 q 200 917 126 917 q 314 872 274 917 q 354 753 354 826 l 354 158 q 314 41 354 86 q 200 -4 274 -4 m 164 164 q 171 122 164 136 q 200 107 178 107 q 229 122 222 107 q 236 164 236 136 l 236 749 q 229 789 236 775 q 200 803 222 803 q 171 789 178 803 q 164 749 164 775 l 164 164 m 108 951 q 51 975 74 951 q 28 1032 28 999 q 51 1093 28 1068 q 108 1118 74 1118 q 167 1094 144 1118 q 189 1032 189 1069 q 165 975 189 999 q 108 951 140 951 m 201 1033 q 224 1095 201 1069 q 281 1121 247 1121 q 340 1096 318 1121 q 363 1033 363 1071 q 338 976 363 1000 q 281 953 314 953 q 224 976 247 953 q 201 1033 201 1000 z "},"Ò":{"ha":400,"x_min":46,"x_max":354,"o":"m 200 -4 q 86 41 126 -4 q 46 158 46 86 l 46 753 q 86 872 46 826 q 200 917 126 917 q 314 872 274 917 q 354 753 354 826 l 354 158 q 314 41 354 86 q 200 -4 274 -4 m 164 164 q 171 122 164 136 q 200 107 178 107 q 229 122 222 107 q 236 164 236 136 l 236 749 q 229 789 236 775 q 200 803 222 803 q 171 789 178 803 q 164 749 164 775 l 164 164 z "},"Ő":{"ha":447,"x_min":50,"x_max":358,"o":"m 204 -4 q 90 41 131 -4 q 50 158 50 86 l 50 753 q 90 872 50 826 q 204 917 131 917 q 318 872 278 917 q 358 753 358 826 l 358 158 q 318 41 358 86 q 204 -4 278 -4 m 168 164 q 175 122 168 136 q 204 107 182 107 q 233 122 226 107 q 240 164 240 136 l 240 749 q 233 789 240 775 q 204 803 226 803 q 175 789 182 803 q 168 749 168 775 l 168 164 z "},"Ō":{"ha":410,"x_min":29,"x_max":375,"o":"m 201 -4 q 88 41 128 -4 q 47 158 47 86 l 47 753 q 88 872 47 826 q 201 917 128 917 q 315 872 275 917 q 356 753 356 826 l 356 158 q 315 41 356 86 q 201 -4 275 -4 m 165 164 q 172 122 165 136 q 201 107 179 107 q 231 122 224 107 q 238 164 238 136 l 238 749 q 231 789 238 775 q 201 803 224 803 q 172 789 179 803 q 165 749 165 775 l 165 164 m 29 1101 l 375 1101 l 375 982 l 29 982 l 29 1101 z "},"Ø":{"ha":600,"x_min":46,"x_max":553,"o":"m 282 -4 q 206 13 239 -4 l 167 -101 l 46 -101 l 129 136 q 128 158 128 143 l 128 753 q 168 872 128 826 q 282 917 208 917 q 388 879 347 917 l 432 1007 l 553 1007 l 436 672 l 436 158 q 396 41 436 86 q 282 -4 356 -4 m 318 681 l 318 749 q 311 789 318 775 q 282 803 304 803 q 253 789 260 803 q 246 749 246 775 l 246 472 l 318 681 m 249 133 q 282 107 256 107 q 311 122 304 107 q 318 164 318 136 l 318 333 l 249 133 z "},"Õ":{"ha":400,"x_min":-4,"x_max":388,"o":"m 200 -4 q 86 41 126 -4 q 46 158 46 86 l 46 753 q 86 872 46 826 q 200 917 126 917 q 314 872 274 917 q 354 753 354 826 l 354 158 q 314 41 354 86 q 200 -4 274 -4 m -4 964 q 40 1058 1 1019 q 128 1097 78 1097 q 164 1092 147 1097 l 226 1072 q 244 1069 238 1069 q 288 1106 276 1069 l 388 1082 q 338 994 375 1026 q 257 963 301 963 q 222 968 238 963 l 175 988 q 146 993 160 993 q 119 983 131 993 q 100 951 108 974 l -4 964 m 164 164 q 171 122 164 136 q 200 107 178 107 q 229 122 222 107 q 236 164 236 136 l 236 749 q 229 789 236 775 q 200 803 222 803 q 171 789 178 803 q 164 749 164 775 l 164 164 z "},"Œ":{"ha":547,"x_min":46,"x_max":501,"o":"m 200 -4 q 86 41 126 -4 q 46 158 46 86 l 46 753 q 86 872 46 826 q 200 917 126 917 q 239 913 221 917 l 239 917 l 501 917 l 501 807 l 357 807 l 357 529 l 478 529 l 478 421 l 357 421 l 357 108 l 501 108 l 501 0 l 240 0 q 200 -4 222 -4 m 164 164 q 171 122 164 136 q 200 107 178 107 q 229 122 222 107 q 236 164 236 136 l 236 749 q 229 789 236 775 q 200 803 222 803 q 171 789 178 803 q 164 749 164 775 l 164 164 z "},"Þ":{"ha":400,"x_min":46,"x_max":354,"o":"m 46 917 l 164 917 l 164 810 l 199 811 q 313 767 272 813 q 354 647 354 721 l 354 310 q 314 192 354 238 q 200 147 274 147 l 164 147 l 164 0 l 46 0 l 46 917 m 200 258 q 229 272 222 258 q 236 313 236 285 l 236 646 q 229 685 236 672 q 200 699 222 699 l 164 699 l 164 258 l 200 258 z "},"Ŕ":{"ha":386,"x_min":46,"x_max":339,"o":"m 46 917 l 172 917 q 298 878 257 917 q 339 776 339 840 l 339 564 q 310 475 339 504 q 339 372 339 449 l 339 0 l 226 0 l 226 372 q 215 411 226 401 q 181 421 204 421 l 164 421 l 164 0 l 46 0 l 46 917 m 164 526 q 216 532 206 526 q 226 564 226 538 l 226 783 q 215 810 226 806 q 164 817 203 815 l 164 526 z "},"Ř":{"ha":386,"x_min":21,"x_max":339,"o":"m 46 917 l 172 917 q 298 878 257 917 q 339 776 339 840 l 339 564 q 310 475 339 504 q 339 372 339 449 l 339 0 l 226 0 l 226 372 q 215 411 226 401 q 181 421 204 421 l 164 421 l 164 0 l 46 0 l 46 917 m 164 526 q 216 532 206 526 q 226 564 226 538 l 226 783 q 215 810 226 806 q 164 817 203 815 l 164 526 z "},"Ŗ":{"ha":386,"x_min":46,"x_max":339,"o":"m 46 917 l 172 917 q 298 878 257 917 q 339 776 339 840 l 339 564 q 310 475 339 504 q 339 372 339 449 l 339 0 l 226 0 l 226 372 q 215 411 226 401 q 181 421 204 421 l 164 421 l 164 0 l 46 0 l 46 917 m 164 526 q 216 532 206 526 q 226 564 226 538 l 226 783 q 215 810 226 806 q 164 817 203 815 l 164 526 z "},"Ś":{"ha":401,"x_min":46,"x_max":356,"o":"m 201 -14 q 87 31 128 -14 q 46 149 46 76 l 46 300 l 165 300 l 165 151 q 172 110 165 124 q 201 97 179 97 q 230 110 224 97 q 236 151 236 124 l 236 351 q 227 392 236 376 q 194 417 218 407 q 84 488 121 447 q 47 594 47 528 l 47 765 q 88 885 47 839 q 201 931 128 931 q 315 885 275 931 q 356 765 356 839 l 356 611 l 236 611 l 236 765 q 230 804 236 792 q 201 817 224 817 q 172 804 179 817 q 165 765 165 792 l 165 594 q 174 557 165 571 q 204 535 183 543 q 313 465 272 510 q 354 351 354 419 l 354 149 q 315 31 354 76 q 201 -14 275 -14 z "},"Š":{"ha":401,"x_min":38,"x_max":356,"o":"m 201 -14 q 87 31 128 -14 q 46 149 46 76 l 46 300 l 165 300 l 165 151 q 172 110 165 124 q 201 97 179 97 q 230 110 224 97 q 236 151 236 124 l 236 351 q 227 392 236 376 q 194 417 218 407 q 84 488 121 447 q 47 594 47 528 l 47 765 q 88 885 47 839 q 201 931 128 931 q 315 885 275 931 q 356 765 356 839 l 356 611 l 236 611 l 236 765 q 230 804 236 792 q 201 817 224 817 q 172 804 179 817 q 165 765 165 792 l 165 594 q 174 557 165 571 q 204 535 183 543 q 313 465 272 510 q 354 351 354 419 l 354 149 q 315 31 354 76 q 201 -14 275 -14 z "},"Ş":{"ha":401,"x_min":36,"x_max":356,"o":"m 36 -189 q 90 -192 60 -189 l 136 -193 q 183 -187 168 -193 q 204 -167 197 -182 q 207 -153 207 -158 q 82 -83 207 -111 l 129 1 q 67 58 89 19 q 46 149 46 97 l 46 300 l 165 300 l 165 151 q 172 110 165 124 q 201 97 179 97 q 230 110 224 97 q 236 151 236 124 l 236 351 q 227 392 236 376 q 194 417 218 407 q 84 488 121 447 q 47 594 47 528 l 47 765 q 88 885 47 839 q 201 931 128 931 q 315 885 275 931 q 356 765 356 839 l 356 611 l 236 611 l 236 765 q 230 804 236 792 q 201 817 224 817 q 172 804 179 817 q 165 765 165 792 l 165 594 q 174 557 165 571 q 204 535 183 543 q 313 465 272 510 q 354 351 354 419 l 354 149 q 326 46 354 88 q 244 -10 297 4 l 231 -36 q 305 -87 281 -56 q 329 -154 329 -118 q 269 -262 329 -229 q 115 -296 208 -296 q 36 -290 86 -296 l 36 -189 z "},"Ș":{"ha":401,"x_min":46,"x_max":356,"o":"m 201 -14 q 87 31 128 -14 q 46 149 46 76 l 46 300 l 165 300 l 165 151 q 172 110 165 124 q 201 97 179 97 q 230 110 224 97 q 236 151 236 124 l 236 351 q 227 392 236 376 q 194 417 218 407 q 84 488 121 447 q 47 594 47 528 l 47 765 q 88 885 47 839 q 201 931 128 931 q 315 885 275 931 q 356 765 356 839 l 356 611 l 236 611 l 236 765 q 230 804 236 792 q 201 817 224 817 q 172 804 179 817 q 165 765 165 792 l 165 594 q 174 557 165 571 q 204 535 183 543 q 313 465 272 510 q 354 351 354 419 l 354 149 q 315 31 354 76 q 201 -14 275 -14 z "},"ẞ":{"ha":433,"x_min":46,"x_max":406,"o":"m 46 917 l 406 917 l 357 558 q 346 517 354 531 q 313 492 338 504 q 369 394 369 467 l 369 150 q 331 39 369 75 q 203 0 293 3 l 203 107 q 244 117 236 108 q 253 150 253 125 l 253 389 q 241 414 253 407 q 206 421 229 421 l 206 528 q 231 540 224 529 q 242 571 239 550 l 271 807 l 164 807 l 164 0 l 46 0 l 46 917 z "},"Ŧ":{"ha":481,"x_min":46,"x_max":433,"o":"m 175 450 l 46 450 l 46 569 l 175 569 l 175 810 l 88 810 l 88 917 l 376 917 l 376 810 l 292 810 l 292 569 l 433 569 l 433 450 l 292 450 l 292 0 l 175 0 l 175 450 z "},"Ť":{"ha":382,"x_min":24,"x_max":335,"o":"m 133 810 l 46 810 l 46 917 l 335 917 l 335 810 l 250 810 l 250 0 l 133 0 l 133 810 z "},"Ţ":{"ha":382,"x_min":11,"x_max":335,"o":"m 11 -169 q 65 -172 35 -169 l 111 -174 q 158 -168 143 -174 q 179 -147 172 -162 q 182 -133 182 -139 q 57 -64 182 -92 l 132 71 l 133 71 l 133 810 l 46 810 l 46 917 l 335 917 l 335 810 l 250 810 l 250 0 l 214 0 l 206 -17 q 280 -67 256 -36 q 304 -135 304 -99 q 244 -243 304 -210 q 90 -276 183 -276 q 11 -271 61 -276 l 11 -169 z "},"Ț":{"ha":382,"x_min":46,"x_max":335,"o":"m 133 810 l 46 810 l 46 917 l 335 917 l 335 810 l 250 810 l 250 0 l 133 0 l 133 810 z "},"Ú":{"ha":403,"x_min":46,"x_max":357,"o":"m 201 -14 q 87 37 128 -14 q 46 163 46 88 l 46 917 l 165 917 l 165 163 q 172 115 165 132 q 201 99 179 99 q 231 115 224 99 q 238 163 238 132 l 238 917 l 357 917 l 357 163 q 315 38 357 89 q 201 -14 274 -14 z "},"Û":{"ha":403,"x_min":42,"x_max":357,"o":"m 201 -14 q 87 37 128 -14 q 46 163 46 88 l 46 917 l 165 917 l 165 163 q 172 115 165 132 q 201 99 179 99 q 231 115 224 99 q 238 163 238 132 l 238 917 l 357 917 l 357 163 q 315 38 357 89 q 201 -14 274 -14 z "},"Ü":{"ha":403,"x_min":29,"x_max":364,"o":"m 201 -14 q 87 37 128 -14 q 46 163 46 88 l 46 917 l 165 917 l 165 163 q 172 115 165 132 q 201 99 179 99 q 231 115 224 99 q 238 163 238 132 l 238 917 l 357 917 l 357 163 q 315 38 357 89 q 201 -14 274 -14 m 110 953 q 52 976 75 953 q 29 1033 29 1000 q 52 1094 29 1069 q 110 1119 75 1119 q 168 1095 146 1119 q 190 1033 190 1071 q 166 976 190 1000 q 110 953 142 953 m 203 1035 q 226 1097 203 1071 q 282 1122 249 1122 q 342 1097 319 1122 q 364 1035 364 1072 q 340 978 364 1001 q 282 954 315 954 q 226 978 249 954 q 203 1035 203 1001 z "},"Ù":{"ha":403,"x_min":46,"x_max":357,"o":"m 201 -14 q 87 37 128 -14 q 46 163 46 88 l 46 917 l 165 917 l 165 163 q 172 115 165 132 q 201 99 179 99 q 231 115 224 99 q 238 163 238 132 l 238 917 l 357 917 l 357 163 q 315 38 357 89 q 201 -14 274 -14 z "},"Ű":{"ha":449,"x_min":51,"x_max":363,"o":"m 207 -14 q 92 37 133 -14 q 51 163 51 88 l 51 917 l 171 917 l 171 163 q 178 115 171 132 q 207 99 185 99 q 236 115 229 99 q 243 163 243 132 l 243 917 l 363 917 l 363 163 q 321 38 363 89 q 207 -14 279 -14 z "},"Ū":{"ha":403,"x_min":31,"x_max":376,"o":"m 201 -14 q 87 37 128 -14 q 46 163 46 88 l 46 917 l 165 917 l 165 163 q 172 115 165 132 q 201 99 179 99 q 231 115 224 99 q 238 163 238 132 l 238 917 l 357 917 l 357 163 q 315 38 357 89 q 201 -14 274 -14 m 31 1103 l 376 1103 l 376 983 l 31 983 l 31 1103 z "},"Ų":{"ha":403,"x_min":39,"x_max":357,"o":"m 307 -164 q 179 -199 239 -199 q 94 -177 129 -199 q 46 -119 58 -156 q 39 -78 39 -99 q 92 32 39 -15 q 46 163 46 81 l 46 917 l 165 917 l 165 163 q 172 115 165 132 q 201 99 179 99 q 231 115 224 99 q 238 163 238 132 l 238 917 l 357 917 l 357 163 q 325 50 357 99 q 235 -11 293 1 q 151 -74 151 -39 q 178 -94 151 -94 q 282 -62 208 -94 l 307 -164 z "},"Ů":{"ha":403,"x_min":46,"x_max":357,"o":"m 201 -14 q 87 37 128 -14 q 46 163 46 88 l 46 917 l 165 917 l 165 163 q 172 115 165 132 q 201 99 179 99 q 231 115 224 99 q 238 163 238 132 l 238 917 l 357 917 l 357 163 q 315 38 357 89 q 201 -14 274 -14 z "},"Ẃ":{"ha":624,"x_min":46,"x_max":578,"o":"m 46 917 l 161 917 l 225 432 l 272 638 l 351 638 l 400 432 l 463 917 l 578 917 l 457 0 l 347 0 l 313 349 l 278 0 l 165 0 l 46 917 z "},"Ŵ":{"ha":624,"x_min":46,"x_max":578,"o":"m 46 917 l 161 917 l 225 432 l 272 638 l 351 638 l 400 432 l 463 917 l 578 917 l 457 0 l 347 0 l 313 349 l 278 0 l 165 0 l 46 917 z "},"Ẅ":{"ha":624,"x_min":46,"x_max":578,"o":"m 46 917 l 161 917 l 225 432 l 272 638 l 351 638 l 400 432 l 463 917 l 578 917 l 457 0 l 347 0 l 313 349 l 278 0 l 165 0 l 46 917 m 215 938 q 158 961 181 938 q 135 1018 135 985 q 158 1079 135 1054 q 215 1104 181 1104 q 274 1080 251 1104 q 296 1018 296 1056 q 272 961 296 985 q 215 938 247 938 m 308 1019 q 331 1081 308 1056 q 388 1107 354 1107 q 447 1082 425 1107 q 469 1019 469 1057 q 445 963 469 986 q 388 939 421 939 q 331 963 354 939 q 308 1019 308 986 z "},"Ẁ":{"ha":624,"x_min":46,"x_max":578,"o":"m 46 917 l 161 917 l 225 432 l 272 638 l 351 638 l 400 432 l 463 917 l 578 917 l 457 0 l 347 0 l 313 349 l 278 0 l 165 0 l 46 917 z "},"Ý":{"ha":435,"x_min":46,"x_max":389,"o":"m 158 432 l 46 917 l 165 917 l 218 672 l 269 917 l 389 917 l 276 432 l 276 0 l 158 0 l 158 432 z "},"Ŷ":{"ha":435,"x_min":46,"x_max":389,"o":"m 158 432 l 46 917 l 165 917 l 218 672 l 269 917 l 389 917 l 276 432 l 276 0 l 158 0 l 158 432 z "},"Ÿ":{"ha":435,"x_min":38,"x_max":389,"o":"m 158 432 l 46 917 l 165 917 l 218 672 l 269 917 l 389 917 l 276 432 l 276 0 l 158 0 l 158 432 m 118 951 q 60 975 83 951 q 38 1032 38 999 q 60 1093 38 1068 q 118 1118 83 1118 q 176 1094 154 1118 q 199 1032 199 1069 q 174 975 199 999 q 118 951 150 951 m 211 1033 q 234 1095 211 1069 q 290 1121 257 1121 q 350 1096 328 1121 q 372 1033 372 1071 q 348 976 372 1000 q 290 953 324 953 q 234 976 257 953 q 211 1033 211 1000 z "},"Ỳ":{"ha":435,"x_min":46,"x_max":389,"o":"m 158 432 l 46 917 l 165 917 l 218 672 l 269 917 l 389 917 l 276 432 l 276 0 l 158 0 l 158 432 z "},"Ź":{"ha":369,"x_min":46,"x_max":324,"o":"m 46 97 l 207 807 l 46 807 l 46 917 l 324 917 l 324 819 l 165 110 l 324 110 l 324 0 l 46 0 l 46 97 z "},"Ž":{"ha":369,"x_min":17,"x_max":324,"o":"m 46 97 l 207 807 l 46 807 l 46 917 l 324 917 l 324 819 l 165 110 l 324 110 l 324 0 l 46 0 l 46 97 z "},"Ż":{"ha":369,"x_min":46,"x_max":324,"o":"m 46 97 l 207 807 l 46 807 l 46 917 l 324 917 l 324 819 l 165 110 l 324 110 l 324 0 l 46 0 l 46 97 z "},"á":{"ha":400,"x_min":46,"x_max":354,"o":"m 200 -14 q 86 31 126 -14 q 46 149 46 75 l 46 325 q 86 444 46 399 q 200 489 126 489 l 236 489 l 236 551 q 229 591 236 578 q 200 604 222 604 q 171 591 178 604 q 164 551 164 578 l 164 515 l 46 515 l 46 554 q 86 673 46 628 q 200 718 126 718 q 314 673 274 718 q 354 554 354 628 l 354 149 q 314 31 354 76 q 200 -14 274 -14 m 164 151 q 172 110 164 124 q 200 96 179 96 q 229 110 222 96 q 236 151 236 125 l 236 375 l 200 375 q 171 363 178 375 q 164 324 164 350 l 164 151 z "},"ă":{"ha":469,"x_min":46,"x_max":424,"o":"m 228 -14 q 114 31 154 -14 q 74 149 74 75 l 74 325 q 114 444 74 399 q 228 489 154 489 l 264 489 l 264 551 q 257 591 264 578 q 228 604 250 604 q 199 591 206 604 q 192 551 192 578 l 192 515 l 74 515 l 74 554 q 114 673 74 628 q 228 718 154 718 q 342 673 301 718 q 382 554 382 628 l 382 149 q 342 31 382 76 q 228 -14 301 -14 m 192 151 q 199 110 192 124 q 228 96 207 96 q 257 110 250 96 q 264 151 264 125 l 264 375 l 228 375 q 199 363 206 375 q 192 324 192 350 l 192 151 z "},"â":{"ha":400,"x_min":44,"x_max":354,"o":"m 200 -14 q 86 31 126 -14 q 46 149 46 75 l 46 325 q 86 444 46 399 q 200 489 126 489 l 236 489 l 236 551 q 229 591 236 578 q 200 604 222 604 q 171 591 178 604 q 164 551 164 578 l 164 515 l 46 515 l 46 554 q 86 673 46 628 q 200 718 126 718 q 314 673 274 718 q 354 554 354 628 l 354 149 q 314 31 354 76 q 200 -14 274 -14 m 164 151 q 172 110 164 124 q 200 96 179 96 q 229 110 222 96 q 236 151 236 125 l 236 375 l 200 375 q 171 363 178 375 q 164 324 164 350 l 164 151 z "},"ä":{"ha":400,"x_min":33,"x_max":368,"o":"m 200 -14 q 86 31 126 -14 q 46 149 46 75 l 46 325 q 86 444 46 399 q 200 489 126 489 l 236 489 l 236 551 q 229 591 236 578 q 200 604 222 604 q 171 591 178 604 q 164 551 164 578 l 164 515 l 46 515 l 46 554 q 86 673 46 628 q 200 718 126 718 q 314 673 274 718 q 354 554 354 628 l 354 149 q 314 31 354 76 q 200 -14 274 -14 m 164 151 q 172 110 164 124 q 200 96 179 96 q 229 110 222 96 q 236 151 236 125 l 236 375 l 200 375 q 171 363 178 375 q 164 324 164 350 l 164 151 m 114 751 q 56 775 79 751 q 33 832 33 799 q 56 893 33 868 q 114 918 79 918 q 172 894 150 918 q 194 832 194 869 q 170 775 194 799 q 114 751 146 751 m 207 833 q 230 895 207 869 q 286 921 253 921 q 346 896 324 921 q 368 833 368 871 q 344 776 368 800 q 286 753 319 753 q 230 776 253 753 q 207 833 207 800 z "},"à":{"ha":400,"x_min":46,"x_max":354,"o":"m 200 -14 q 86 31 126 -14 q 46 149 46 75 l 46 325 q 86 444 46 399 q 200 489 126 489 l 236 489 l 236 551 q 229 591 236 578 q 200 604 222 604 q 171 591 178 604 q 164 551 164 578 l 164 515 l 46 515 l 46 554 q 86 673 46 628 q 200 718 126 718 q 314 673 274 718 q 354 554 354 628 l 354 149 q 314 31 354 76 q 200 -14 274 -14 m 164 151 q 172 110 164 124 q 200 96 179 96 q 229 110 222 96 q 236 151 236 125 l 236 375 l 200 375 q 171 363 178 375 q 164 324 164 350 l 164 151 z "},"ā":{"ha":400,"x_min":33,"x_max":379,"o":"m 200 -14 q 86 31 126 -14 q 46 149 46 75 l 46 325 q 86 444 46 399 q 200 489 126 489 l 236 489 l 236 551 q 229 591 236 578 q 200 604 222 604 q 171 591 178 604 q 164 551 164 578 l 164 515 l 46 515 l 46 554 q 86 673 46 628 q 200 718 126 718 q 314 673 274 718 q 354 554 354 628 l 354 149 q 314 31 354 76 q 200 -14 274 -14 m 164 151 q 172 110 164 124 q 200 96 179 96 q 229 110 222 96 q 236 151 236 125 l 236 375 l 200 375 q 171 363 178 375 q 164 324 164 350 l 164 151 m 33 901 l 379 901 l 379 782 l 33 782 l 33 901 z "},"ą":{"ha":400,"x_min":46,"x_max":354,"o":"m 336 -153 q 208 -187 268 -187 q 123 -166 158 -187 q 75 -108 88 -144 q 68 -68 68 -87 q 99 18 68 -21 q 46 149 46 63 l 46 325 q 86 444 46 399 q 200 489 126 489 l 236 489 l 236 551 q 229 591 236 578 q 200 604 222 604 q 171 591 178 604 q 164 551 164 578 l 164 515 l 46 515 l 46 554 q 86 673 46 628 q 200 718 126 718 q 314 673 274 718 q 354 554 354 628 l 354 149 q 324 43 354 86 q 236 -11 293 0 q 181 -61 181 -35 q 208 -83 181 -83 q 311 -51 238 -83 l 336 -153 m 164 151 q 172 110 164 124 q 200 96 179 96 q 229 110 222 96 q 236 151 236 125 l 236 375 l 200 375 q 171 363 178 375 q 164 324 164 350 l 164 151 z "},"å":{"ha":400,"x_min":46,"x_max":354,"o":"m 200 -14 q 86 31 126 -14 q 46 149 46 75 l 46 325 q 86 444 46 399 q 200 489 126 489 l 236 489 l 236 551 q 229 591 236 578 q 200 604 222 604 q 171 591 178 604 q 164 551 164 578 l 164 515 l 46 515 l 46 554 q 86 673 46 628 q 200 718 126 718 q 314 673 274 718 q 354 554 354 628 l 354 149 q 314 31 354 76 q 200 -14 274 -14 m 164 151 q 172 110 164 124 q 200 96 179 96 q 229 110 222 96 q 236 151 236 125 l 236 375 l 200 375 q 171 363 178 375 q 164 324 164 350 l 164 151 z "},"ã":{"ha":400,"x_min":19,"x_max":378,"o":"m 200 -14 q 86 31 126 -14 q 46 149 46 75 l 46 325 q 86 444 46 399 q 200 489 126 489 l 236 489 l 236 551 q 229 591 236 578 q 200 604 222 604 q 171 591 178 604 q 164 551 164 578 l 164 515 l 46 515 l 46 554 q 86 673 46 628 q 200 718 126 718 q 314 673 274 718 q 354 554 354 628 l 354 149 q 314 31 354 76 q 200 -14 274 -14 m 19 763 q 60 849 25 813 q 140 886 94 886 q 172 881 157 886 l 231 863 q 247 860 242 860 q 286 893 276 860 l 378 871 q 333 792 367 821 q 258 763 299 763 q 226 768 242 763 l 183 785 q 156 790 161 790 q 114 753 128 790 l 19 763 m 164 151 q 172 110 164 124 q 200 96 179 96 q 229 110 222 96 q 236 151 236 125 l 236 375 l 200 375 q 171 363 178 375 q 164 324 164 350 l 164 151 z "},"æ":{"ha":593,"x_min":46,"x_max":547,"o":"m 199 -14 q 85 30 125 -14 q 46 144 46 74 l 46 315 q 85 430 46 386 q 199 474 125 474 l 235 474 l 235 535 q 228 573 235 560 q 199 586 221 586 q 169 573 176 586 q 163 535 163 560 l 163 499 l 46 499 l 46 538 q 85 652 46 608 q 199 696 125 696 q 283 675 249 696 q 393 717 322 717 q 507 672 467 717 q 547 553 547 626 l 547 449 q 506 334 547 378 q 393 290 465 290 l 357 290 l 357 150 q 364 109 357 122 q 393 96 371 96 q 422 109 415 96 q 429 150 429 122 l 429 236 l 547 236 l 547 147 q 507 30 547 75 q 393 -15 467 -15 q 296 15 333 -15 q 199 -14 256 -14 m 163 147 q 170 106 163 119 q 199 93 178 93 q 228 107 221 93 q 235 147 235 121 l 235 364 l 199 364 q 169 351 176 364 q 163 314 163 339 l 163 147 m 393 403 q 422 416 415 403 q 429 456 429 429 l 429 551 q 422 590 429 576 q 393 603 415 603 q 364 590 371 603 q 357 551 357 576 l 357 403 l 393 403 z "},"ć":{"ha":400,"x_min":46,"x_max":354,"o":"m 200 -14 q 86 31 126 -14 q 46 149 46 76 l 46 554 q 86 673 46 628 q 200 718 126 718 q 314 673 274 718 q 354 554 354 628 l 354 438 l 236 438 l 236 550 q 229 590 236 576 q 200 604 222 604 q 171 590 178 604 q 164 550 164 576 l 164 154 q 171 112 164 126 q 200 97 178 97 q 229 112 222 97 q 236 154 236 126 l 236 257 l 354 257 l 354 149 q 314 31 354 76 q 200 -14 274 -14 z "},"č":{"ha":400,"x_min":44,"x_max":354,"o":"m 200 -14 q 86 31 126 -14 q 46 149 46 76 l 46 554 q 86 673 46 628 q 200 718 126 718 q 314 673 274 718 q 354 554 354 628 l 354 438 l 236 438 l 236 550 q 229 590 236 576 q 200 604 222 604 q 171 590 178 604 q 164 550 164 576 l 164 154 q 171 112 164 126 q 200 97 178 97 q 229 112 222 97 q 236 154 236 126 l 236 257 l 354 257 l 354 149 q 314 31 354 76 q 200 -14 274 -14 z "},"ç":{"ha":400,"x_min":36,"x_max":354,"o":"m 36 -174 q 90 -176 60 -174 l 136 -178 q 183 -172 168 -178 q 204 -151 197 -167 q 207 -137 207 -143 q 82 -68 207 -96 l 122 4 q 65 61 85 24 q 46 149 46 99 l 46 554 q 86 673 46 628 q 200 718 126 718 q 314 673 274 718 q 354 554 354 628 l 354 438 l 236 438 l 236 550 q 229 590 236 576 q 200 604 222 604 q 171 590 178 604 q 164 550 164 576 l 164 154 q 171 112 164 126 q 200 97 178 97 q 229 112 222 97 q 236 154 236 126 l 236 257 l 354 257 l 354 149 q 324 43 354 86 q 236 -11 293 0 l 231 -21 q 305 -72 281 -40 q 329 -139 329 -103 q 269 -247 329 -214 q 115 -281 208 -281 q 36 -275 86 -281 l 36 -174 z "},"ċ":{"ha":400,"x_min":46,"x_max":354,"o":"m 200 -14 q 86 31 126 -14 q 46 149 46 76 l 46 554 q 86 673 46 628 q 200 718 126 718 q 314 673 274 718 q 354 554 354 628 l 354 438 l 236 438 l 236 550 q 229 590 236 576 q 200 604 222 604 q 171 590 178 604 q 164 550 164 576 l 164 154 q 171 112 164 126 q 200 97 178 97 q 229 112 222 97 q 236 154 236 126 l 236 257 l 354 257 l 354 149 q 314 31 354 76 q 200 -14 274 -14 z "},"ð":{"ha":503,"x_min":46,"x_max":471,"o":"m 165 417 l 46 417 l 46 536 l 165 536 l 165 917 l 290 917 q 429 877 388 917 q 471 760 471 838 l 471 157 q 429 39 471 78 q 290 0 388 0 l 165 0 l 165 417 m 283 108 q 331 114 315 108 q 350 128 346 119 q 354 157 354 138 l 354 760 q 342 797 354 786 q 283 807 329 807 l 283 536 l 342 536 l 342 417 l 283 417 l 283 108 z "},"ď":{"ha":400,"x_min":39,"x_max":354,"o":"m 201 -14 q 87 31 128 -14 q 46 149 46 75 l 46 554 q 87 673 46 628 q 201 718 128 718 q 236 714 219 718 l 236 917 l 354 917 l 354 149 q 315 31 354 75 q 201 -14 275 -14 m 165 151 q 172 110 165 125 q 201 96 179 96 q 230 110 224 96 q 236 151 236 125 l 236 568 q 226 595 233 586 q 201 604 218 604 q 172 591 179 604 q 165 553 165 578 l 165 151 z "},"đ":{"ha":488,"x_min":46,"x_max":471,"o":"m 165 417 l 46 417 l 46 536 l 165 536 l 165 917 l 290 917 q 429 877 388 917 q 471 760 471 838 l 471 157 q 429 39 471 78 q 290 0 388 0 l 165 0 l 165 417 m 283 108 q 331 114 315 108 q 350 128 346 119 q 354 157 354 138 l 354 760 q 342 797 354 786 q 283 807 329 807 l 283 536 l 342 536 l 342 417 l 283 417 l 283 108 z "},"é":{"ha":400,"x_min":46,"x_max":354,"o":"m 200 -14 q 86 31 126 -14 q 46 149 46 76 l 46 554 q 86 673 46 628 q 200 718 126 718 q 314 673 274 718 q 354 554 354 628 l 354 450 q 313 335 354 379 q 200 292 272 292 l 164 292 l 164 151 q 171 110 164 124 q 200 97 178 97 q 229 110 222 97 q 236 151 236 124 l 236 238 l 354 238 l 354 149 q 314 31 354 76 q 200 -14 274 -14 m 200 404 q 229 417 222 404 q 236 457 236 431 l 236 553 q 229 591 236 578 q 200 604 222 604 q 171 591 178 604 q 164 553 164 578 l 164 404 l 200 404 z "},"ě":{"ha":400,"x_min":44,"x_max":354,"o":"m 200 -14 q 86 31 126 -14 q 46 149 46 76 l 46 554 q 86 673 46 628 q 200 718 126 718 q 314 673 274 718 q 354 554 354 628 l 354 450 q 313 335 354 379 q 200 292 272 292 l 164 292 l 164 151 q 171 110 164 124 q 200 97 178 97 q 229 110 222 97 q 236 151 236 124 l 236 238 l 354 238 l 354 149 q 314 31 354 76 q 200 -14 274 -14 m 200 404 q 229 417 222 404 q 236 457 236 431 l 236 553 q 229 591 236 578 q 200 604 222 604 q 171 591 178 604 q 164 553 164 578 l 164 404 l 200 404 z "},"ê":{"ha":400,"x_min":43,"x_max":354,"o":"m 200 -14 q 86 31 126 -14 q 46 149 46 76 l 46 554 q 86 673 46 628 q 200 718 126 718 q 314 673 274 718 q 354 554 354 628 l 354 450 q 313 335 354 379 q 200 292 272 292 l 164 292 l 164 151 q 171 110 164 124 q 200 97 178 97 q 229 110 222 97 q 236 151 236 124 l 236 238 l 354 238 l 354 149 q 314 31 354 76 q 200 -14 274 -14 m 200 404 q 229 417 222 404 q 236 457 236 431 l 236 553 q 229 591 236 578 q 200 604 222 604 q 171 591 178 604 q 164 553 164 578 l 164 404 l 200 404 z "},"ë":{"ha":400,"x_min":32,"x_max":367,"o":"m 200 -14 q 86 31 126 -14 q 46 149 46 76 l 46 554 q 86 673 46 628 q 200 718 126 718 q 314 673 274 718 q 354 554 354 628 l 354 450 q 313 335 354 379 q 200 292 272 292 l 164 292 l 164 151 q 171 110 164 124 q 200 97 178 97 q 229 110 222 97 q 236 151 236 124 l 236 238 l 354 238 l 354 149 q 314 31 354 76 q 200 -14 274 -14 m 200 404 q 229 417 222 404 q 236 457 236 431 l 236 553 q 229 591 236 578 q 200 604 222 604 q 171 591 178 604 q 164 553 164 578 l 164 404 l 200 404 m 113 744 q 55 768 78 744 q 32 825 32 792 q 55 886 32 861 q 113 911 78 911 q 171 887 149 911 q 193 825 193 863 q 169 768 193 792 q 113 744 144 744 m 206 826 q 228 888 206 863 q 285 914 251 914 q 344 889 322 914 q 367 826 367 864 q 342 769 367 793 q 285 746 318 746 q 228 769 251 746 q 206 826 206 793 z "},"ė":{"ha":400,"x_min":46,"x_max":354,"o":"m 200 -14 q 86 31 126 -14 q 46 149 46 76 l 46 554 q 86 673 46 628 q 200 718 126 718 q 314 673 274 718 q 354 554 354 628 l 354 450 q 313 335 354 379 q 200 292 272 292 l 164 292 l 164 151 q 171 110 164 124 q 200 97 178 97 q 229 110 222 97 q 236 151 236 124 l 236 238 l 354 238 l 354 149 q 314 31 354 76 q 200 -14 274 -14 m 200 404 q 229 417 222 404 q 236 457 236 431 l 236 553 q 229 591 236 578 q 200 604 222 604 q 171 591 178 604 q 164 553 164 578 l 164 404 l 200 404 z "},"è":{"ha":400,"x_min":46,"x_max":354,"o":"m 200 -14 q 86 31 126 -14 q 46 149 46 76 l 46 554 q 86 673 46 628 q 200 718 126 718 q 314 673 274 718 q 354 554 354 628 l 354 450 q 313 335 354 379 q 200 292 272 292 l 164 292 l 164 151 q 171 110 164 124 q 200 97 178 97 q 229 110 222 97 q 236 151 236 124 l 236 238 l 354 238 l 354 149 q 314 31 354 76 q 200 -14 274 -14 m 200 404 q 229 417 222 404 q 236 457 236 431 l 236 553 q 229 591 236 578 q 200 604 222 604 q 171 591 178 604 q 164 553 164 578 l 164 404 l 200 404 z "},"ē":{"ha":400,"x_min":32,"x_max":378,"o":"m 200 -14 q 86 31 126 -14 q 46 149 46 76 l 46 554 q 86 673 46 628 q 200 718 126 718 q 314 673 274 718 q 354 554 354 628 l 354 450 q 313 335 354 379 q 200 292 272 292 l 164 292 l 164 151 q 171 110 164 124 q 200 97 178 97 q 229 110 222 97 q 236 151 236 124 l 236 238 l 354 238 l 354 149 q 314 31 354 76 q 200 -14 274 -14 m 200 404 q 229 417 222 404 q 236 457 236 431 l 236 553 q 229 591 236 578 q 200 604 222 604 q 171 591 178 604 q 164 553 164 578 l 164 404 l 200 404 m 32 894 l 378 894 l 378 775 l 32 775 l 32 894 z "},"ę":{"ha":400,"x_min":33,"x_max":354,"o":"m 200 404 q 229 417 222 404 q 236 457 236 431 l 236 553 q 229 591 236 578 q 200 604 222 604 q 171 591 178 604 q 164 553 164 578 l 164 404 l 200 404 m 40 -114 q 33 -74 33 -93 q 83 35 33 -14 q 46 149 46 76 l 46 554 q 86 673 46 628 q 200 718 126 718 q 314 673 274 718 q 354 554 354 628 l 354 450 q 313 335 354 379 q 200 292 272 292 l 164 292 l 164 151 q 171 110 164 124 q 200 97 178 97 q 229 110 222 97 q 236 151 236 124 l 236 238 l 354 238 l 354 149 q 315 33 354 79 q 207 -14 276 -12 q 146 -67 146 -39 q 174 -89 146 -89 q 276 -57 203 -89 l 301 -158 q 174 -193 233 -193 q 88 -172 124 -193 q 40 -114 53 -150 z "},"ğ":{"ha":411,"x_min":19,"x_max":397,"o":"m 153 -215 l 197 -215 q 228 -203 219 -215 q 236 -167 236 -190 l 236 -8 q 200 -14 214 -14 q 86 31 126 -14 q 46 149 46 76 l 46 554 q 86 673 46 628 q 200 718 126 718 q 296 689 257 718 q 386 704 331 707 l 388 592 q 351 589 376 592 q 354 554 354 564 l 353 -171 q 208 -335 353 -335 l 153 -335 l 153 -215 m 164 151 q 171 111 164 125 q 200 97 178 97 q 229 111 222 97 q 236 151 236 125 l 236 553 q 229 592 236 579 q 200 606 222 606 q 171 592 178 606 q 164 553 164 579 l 164 151 z "},"ģ":{"ha":411,"x_min":46,"x_max":388,"o":"m 143 757 l 222 950 l 343 950 l 264 757 l 143 757 m 153 -215 l 197 -215 q 228 -203 219 -215 q 236 -167 236 -190 l 236 -8 q 200 -14 214 -14 q 86 31 126 -14 q 46 149 46 76 l 46 554 q 86 673 46 628 q 200 718 126 718 q 296 689 257 718 q 386 704 331 707 l 388 592 q 351 589 376 592 q 354 554 354 564 l 353 -171 q 208 -335 353 -335 l 153 -335 l 153 -215 m 164 151 q 171 111 164 125 q 200 97 178 97 q 229 111 222 97 q 236 151 236 125 l 236 553 q 229 592 236 579 q 200 606 222 606 q 171 592 178 606 q 164 553 164 579 l 164 151 z "},"ġ":{"ha":411,"x_min":46,"x_max":388,"o":"m 153 -215 l 197 -215 q 228 -203 219 -215 q 236 -167 236 -190 l 236 -8 q 200 -14 214 -14 q 86 31 126 -14 q 46 149 46 76 l 46 554 q 86 673 46 628 q 200 718 126 718 q 296 689 257 718 q 386 704 331 707 l 388 592 q 351 589 376 592 q 354 554 354 564 l 353 -171 q 208 -335 353 -335 l 153 -335 l 153 -215 m 164 151 q 171 111 164 125 q 200 97 178 97 q 229 111 222 97 q 236 151 236 125 l 236 553 q 229 592 236 579 q 200 606 222 606 q 171 592 178 606 q 164 553 164 579 l 164 151 z "},"ħ":{"ha":496,"x_min":46,"x_max":449,"o":"m 140 1 l 140 763 l 46 763 l 46 882 l 140 882 l 140 918 l 258 918 l 258 882 l 381 882 l 381 763 l 258 763 l 258 714 q 294 718 275 718 q 408 673 368 718 q 449 554 449 628 l 449 0 l 331 0 l 331 550 q 324 590 331 576 q 294 604 317 604 q 265 590 272 604 q 258 550 258 576 l 258 0 l 140 1 z "},"ı":{"ha":211,"x_min":46,"x_max":165,"o":"m 46 704 l 165 704 l 165 0 l 46 0 l 46 704 z "},"í":{"ha":293,"x_min":47,"x_max":247,"o":"m 47 704 l 167 704 l 167 0 l 47 0 l 47 704 z "},"î":{"ha":399,"x_min":46,"x_max":351,"o":"m 133 704 l 253 704 l 253 0 l 133 0 l 133 704 z "},"ï":{"ha":428,"x_min":46,"x_max":381,"o":"m 147 704 l 267 704 l 267 0 l 147 0 l 147 704 m 126 735 q 69 758 92 735 q 46 815 46 782 q 69 876 46 851 q 126 901 92 901 q 185 877 163 901 q 207 815 207 853 q 183 758 207 782 q 126 735 158 735 m 219 817 q 242 878 219 853 q 299 904 265 904 q 358 879 336 904 q 381 817 381 854 q 356 760 381 783 q 299 736 332 736 q 242 760 265 736 q 219 817 219 783 z "},"ì":{"ha":293,"x_min":46,"x_max":246,"o":"m 114 704 l 233 704 l 233 0 l 114 0 l 114 704 z "},"ī":{"ha":439,"x_min":46,"x_max":392,"o":"m 146 704 l 265 704 l 265 0 l 146 0 l 146 704 m 46 879 l 392 879 l 392 760 l 46 760 l 46 879 z "},"į":{"ha":360,"x_min":46,"x_max":314,"o":"m 314 -154 q 186 -189 246 -189 q 84 -154 122 -189 q 46 -69 46 -119 q 70 8 46 -29 q 144 71 94 46 l 144 704 l 264 704 l 264 0 l 244 0 q 158 -62 158 -29 q 186 -85 158 -85 q 289 -53 215 -85 l 314 -154 z "},"ķ":{"ha":488,"x_min":46,"x_max":442,"o":"m 46 917 l 165 917 l 165 493 l 276 704 l 399 704 l 204 339 l 442 0 l 318 0 l 165 206 l 165 0 l 46 0 l 46 917 z "},"ĺ":{"ha":297,"x_min":46,"x_max":251,"o":"m 46 917 l 164 917 l 164 0 l 46 0 l 46 917 z "},"ľ":{"ha":403,"x_min":38,"x_max":343,"o":"m 129 917 l 247 917 l 247 0 l 129 0 l 129 917 z "},"ļ":{"ha":294,"x_min":47,"x_max":247,"o":"m 122 917 l 240 917 l 240 0 l 122 0 l 122 917 z "},"ł":{"ha":467,"x_min":46,"x_max":421,"o":"m 164 432 l 101 403 l 46 521 l 164 575 l 164 917 l 282 917 l 282 631 l 367 669 l 421 551 l 282 486 l 282 0 l 164 0 l 164 432 z "},"ń":{"ha":400,"x_min":46,"x_max":354,"o":"m 46 554 q 86 673 46 628 q 200 718 126 718 q 314 673 274 718 q 354 554 354 628 l 354 0 l 236 0 l 236 550 q 229 590 236 576 q 200 604 222 604 q 171 590 178 604 q 164 550 164 576 l 164 0 l 46 0 l 46 554 z "},"ň":{"ha":400,"x_min":46,"x_max":354,"o":"m 46 554 q 86 673 46 628 q 200 718 126 718 q 314 673 274 718 q 354 554 354 628 l 354 0 l 236 0 l 236 550 q 229 590 236 576 q 200 604 222 604 q 171 590 178 604 q 164 550 164 576 l 164 0 l 46 0 l 46 554 z "},"ņ":{"ha":400,"x_min":46,"x_max":354,"o":"m 46 554 q 86 673 46 628 q 200 718 126 718 q 314 673 274 718 q 354 554 354 628 l 354 0 l 236 0 l 236 550 q 229 590 236 576 q 200 604 222 604 q 171 590 178 604 q 164 550 164 576 l 164 0 l 46 0 l 46 554 z "},"ñ":{"ha":400,"x_min":3,"x_max":399,"o":"m 46 554 q 86 673 46 628 q 200 718 126 718 q 314 673 274 718 q 354 554 354 628 l 354 0 l 236 0 l 236 550 q 229 590 236 576 q 200 604 222 604 q 171 590 178 604 q 164 550 164 576 l 164 0 l 46 0 l 46 554 m 3 756 q 47 852 8 813 q 136 892 85 892 q 172 886 156 892 l 236 865 q 254 863 247 863 q 297 900 286 863 l 399 876 q 349 787 386 819 q 265 754 311 754 q 231 760 246 754 l 183 779 q 153 785 168 785 q 126 775 138 785 q 107 743 115 765 l 3 756 z "},"ŋ":{"ha":400,"x_min":46,"x_max":354,"o":"m 115 -76 q 203 -55 171 -79 q 236 15 236 -31 l 236 558 q 229 597 236 585 q 200 610 222 610 q 171 597 178 610 q 164 558 164 585 l 164 0 l 46 0 l 46 560 q 86 678 46 633 q 200 724 126 724 q 314 678 274 724 q 354 560 354 633 l 354 13 q 322 -99 354 -47 q 234 -178 289 -150 q 115 -203 179 -207 l 115 -76 z "},"ó":{"ha":400,"x_min":46,"x_max":354,"o":"m 200 -14 q 86 31 126 -14 q 46 149 46 75 l 46 554 q 86 673 46 628 q 200 718 126 718 q 314 673 274 718 q 354 554 354 628 l 354 149 q 314 31 354 76 q 200 -14 274 -14 m 164 153 q 171 110 164 125 q 200 96 178 96 q 229 110 222 96 q 236 153 236 125 l 236 550 q 229 590 236 576 q 200 604 222 604 q 171 590 178 604 q 164 550 164 576 l 164 153 z "},"ô":{"ha":400,"x_min":43,"x_max":354,"o":"m 200 -14 q 86 31 126 -14 q 46 149 46 75 l 46 554 q 86 673 46 628 q 200 718 126 718 q 314 673 274 718 q 354 554 354 628 l 354 149 q 314 31 354 76 q 200 -14 274 -14 m 164 153 q 171 110 164 125 q 200 96 178 96 q 229 110 222 96 q 236 153 236 125 l 236 550 q 229 590 236 576 q 200 604 222 604 q 171 590 178 604 q 164 550 164 576 l 164 153 z "},"ö":{"ha":400,"x_min":32,"x_max":367,"o":"m 200 -14 q 86 31 126 -14 q 46 149 46 75 l 46 554 q 86 673 46 628 q 200 718 126 718 q 314 673 274 718 q 354 554 354 628 l 354 149 q 314 31 354 76 q 200 -14 274 -14 m 164 153 q 171 110 164 125 q 200 96 178 96 q 229 110 222 96 q 236 153 236 125 l 236 550 q 229 590 236 576 q 200 604 222 604 q 171 590 178 604 q 164 550 164 576 l 164 153 m 113 753 q 55 776 78 753 q 32 833 32 800 q 55 894 32 869 q 113 919 78 919 q 171 895 149 919 q 193 833 193 871 q 169 776 193 800 q 113 753 144 753 m 206 835 q 228 897 206 871 q 285 922 251 922 q 344 897 322 922 q 367 835 367 872 q 342 778 367 801 q 285 754 318 754 q 228 778 251 754 q 206 835 206 801 z "},"ò":{"ha":400,"x_min":46,"x_max":354,"o":"m 200 -14 q 86 31 126 -14 q 46 149 46 75 l 46 554 q 86 673 46 628 q 200 718 126 718 q 314 673 274 718 q 354 554 354 628 l 354 149 q 314 31 354 76 q 200 -14 274 -14 m 164 153 q 171 110 164 125 q 200 96 178 96 q 229 110 222 96 q 236 153 236 125 l 236 550 q 229 590 236 576 q 200 604 222 604 q 171 590 178 604 q 164 550 164 576 l 164 153 z "},"ő":{"ha":447,"x_min":49,"x_max":360,"o":"m 203 -14 q 89 31 129 -14 q 49 149 49 75 l 49 554 q 89 673 49 628 q 203 718 129 718 q 317 673 276 718 q 357 554 357 628 l 357 149 q 317 31 357 76 q 203 -14 276 -14 m 167 153 q 174 110 167 125 q 203 96 181 96 q 232 110 225 96 q 239 153 239 125 l 239 550 q 232 590 239 576 q 203 604 225 604 q 174 590 181 604 q 167 550 167 576 l 167 153 z "},"ō":{"ha":400,"x_min":32,"x_max":378,"o":"m 200 -14 q 86 31 126 -14 q 46 149 46 75 l 46 554 q 86 673 46 628 q 200 718 126 718 q 314 673 274 718 q 354 554 354 628 l 354 149 q 314 31 354 76 q 200 -14 274 -14 m 164 153 q 171 110 164 125 q 200 96 178 96 q 229 110 222 96 q 236 153 236 125 l 236 550 q 229 590 236 576 q 200 604 222 604 q 171 590 178 604 q 164 550 164 576 l 164 153 m 32 903 l 378 903 l 378 783 l 32 783 l 32 903 z "},"ø":{"ha":650,"x_min":46,"x_max":603,"o":"m 326 -14 q 263 -3 292 -14 l 179 -226 l 46 -226 l 174 118 q 172 149 172 128 l 172 554 q 213 673 172 628 q 326 718 253 718 q 393 706 364 718 l 471 914 l 603 914 l 479 581 q 481 554 481 572 l 481 149 q 440 31 481 76 q 326 -14 400 -14 m 351 594 q 326 604 346 604 q 297 590 304 604 q 290 550 290 576 l 290 429 l 351 594 m 301 104 q 326 96 310 96 q 356 110 349 96 q 363 153 363 125 l 363 267 l 301 104 z "},"õ":{"ha":400,"x_min":-22,"x_max":414,"o":"m 200 -14 q 86 31 126 -14 q 46 149 46 75 l 46 554 q 86 673 46 628 q 200 718 126 718 q 314 673 274 718 q 354 554 354 628 l 354 149 q 314 31 354 76 q 200 -14 274 -14 m 164 153 q 171 110 164 125 q 200 96 178 96 q 229 110 222 96 q 236 153 236 125 l 236 550 q 229 590 236 576 q 200 604 222 604 q 171 590 178 604 q 164 550 164 576 l 164 153 z "},"œ":{"ha":599,"x_min":46,"x_max":553,"o":"m 200 -14 q 86 31 126 -14 q 46 149 46 75 l 46 554 q 86 673 46 628 q 200 718 126 718 q 294 690 258 718 q 399 725 333 725 q 513 680 472 725 q 553 561 553 635 l 553 457 q 512 342 553 386 q 399 299 471 299 l 363 299 l 363 158 q 369 117 363 131 q 399 104 376 104 q 428 117 421 104 q 435 158 435 131 l 435 244 l 553 244 l 553 156 q 513 38 553 83 q 399 -7 472 -7 q 304 21 340 -7 q 200 -14 263 -14 m 164 153 q 171 110 164 125 q 200 96 178 96 q 229 110 222 96 q 236 153 236 125 l 236 550 q 229 590 236 576 q 200 604 222 604 q 171 590 178 604 q 164 550 164 576 l 164 153 m 399 411 q 428 424 421 411 q 435 464 435 438 l 435 560 q 428 598 435 585 q 399 611 421 611 q 369 598 376 611 q 363 560 363 585 l 363 411 l 399 411 z "},"þ":{"ha":400,"x_min":46,"x_max":354,"o":"m 46 917 l 164 917 l 164 821 q 200 825 181 825 q 314 780 274 825 q 354 661 354 735 l 354 250 q 314 133 354 178 q 200 88 274 88 q 164 92 181 88 l 164 0 l 46 0 l 46 917 m 164 256 q 171 213 164 228 q 200 199 178 199 q 229 213 222 199 q 236 256 236 228 l 236 657 q 229 697 236 683 q 200 711 222 711 q 171 697 178 711 q 164 657 164 683 l 164 256 z "},"ŕ":{"ha":400,"x_min":46,"x_max":354,"o":"m 129 760 l 208 953 l 329 953 l 250 760 l 129 760 m 46 554 q 87 673 46 628 q 201 718 128 718 q 315 673 275 718 q 354 554 354 628 l 354 438 l 236 438 l 236 550 q 230 591 236 578 q 201 604 224 604 q 172 591 179 604 q 165 550 165 578 l 164 0 l 46 0 l 46 554 z "},"ř":{"ha":400,"x_min":22,"x_max":354,"o":"m 46 554 q 87 673 46 628 q 201 718 128 718 q 315 673 275 718 q 354 554 354 628 l 354 438 l 236 438 l 236 550 q 230 591 236 578 q 201 604 224 604 q 172 591 179 604 q 165 550 165 578 l 164 0 l 46 0 l 46 554 z "},"ŗ":{"ha":400,"x_min":46,"x_max":354,"o":"m 46 554 q 87 673 46 628 q 201 718 128 718 q 315 673 275 718 q 354 554 354 628 l 354 438 l 236 438 l 236 550 q 230 591 236 578 q 201 604 224 604 q 172 591 179 604 q 165 550 165 578 l 164 0 l 46 0 l 46 554 z "},"ś":{"ha":401,"x_min":46,"x_max":356,"o":"m 200 -14 q 86 31 126 -14 q 46 150 46 76 l 46 261 l 164 261 l 164 154 q 171 113 164 128 q 200 99 178 99 q 229 113 222 99 q 236 154 236 128 l 236 253 q 228 289 236 278 q 196 306 221 300 q 47 482 47 342 l 47 554 q 88 673 47 628 q 201 718 128 718 q 315 673 275 718 q 356 554 356 628 l 356 461 l 236 461 l 236 550 q 230 591 236 578 q 201 604 224 604 q 172 591 179 604 q 165 550 165 578 l 165 481 q 177 441 165 456 q 214 418 189 426 q 322 358 289 390 q 354 260 354 325 l 354 150 q 314 31 354 76 q 200 -14 274 -14 z "},"š":{"ha":401,"x_min":44,"x_max":356,"o":"m 200 -14 q 86 31 126 -14 q 46 150 46 76 l 46 261 l 164 261 l 164 154 q 171 113 164 128 q 200 99 178 99 q 229 113 222 99 q 236 154 236 128 l 236 253 q 228 289 236 278 q 196 306 221 300 q 47 482 47 342 l 47 554 q 88 673 47 628 q 201 718 128 718 q 315 673 275 718 q 356 554 356 628 l 356 461 l 236 461 l 236 550 q 230 591 236 578 q 201 604 224 604 q 172 591 179 604 q 165 550 165 578 l 165 481 q 177 441 165 456 q 214 418 189 426 q 322 358 289 390 q 354 260 354 325 l 354 150 q 314 31 354 76 q 200 -14 274 -14 z "},"ş":{"ha":401,"x_min":43,"x_max":356,"o":"m 43 -185 q 97 -187 67 -185 l 143 -189 q 190 -183 175 -189 q 211 -162 204 -178 q 214 -149 214 -154 q 89 -79 214 -107 l 132 -1 q 68 56 90 17 q 46 150 46 96 l 46 261 l 164 261 l 164 154 q 171 113 164 128 q 200 99 178 99 q 229 113 222 99 q 236 154 236 128 l 236 253 q 228 289 236 278 q 196 306 221 300 q 47 482 47 342 l 47 554 q 88 673 47 628 q 201 718 128 718 q 315 673 275 718 q 356 554 356 628 l 356 461 l 236 461 l 236 550 q 230 591 236 578 q 201 604 224 604 q 172 591 179 604 q 165 550 165 578 l 165 481 q 177 441 165 456 q 214 418 189 426 q 322 358 289 390 q 354 260 354 325 l 354 150 q 327 49 354 90 q 250 -7 300 7 l 238 -32 q 312 -83 288 -51 q 336 -150 336 -114 q 276 -258 336 -225 q 122 -292 215 -292 q 43 -286 93 -292 l 43 -185 z "},"ș":{"ha":401,"x_min":46,"x_max":356,"o":"m 200 -14 q 86 31 126 -14 q 46 150 46 76 l 46 261 l 164 261 l 164 154 q 171 113 164 128 q 200 99 178 99 q 229 113 222 99 q 236 154 236 128 l 236 253 q 228 289 236 278 q 196 306 221 300 q 47 482 47 342 l 47 554 q 88 673 47 628 q 201 718 128 718 q 315 673 275 718 q 356 554 356 628 l 356 461 l 236 461 l 236 550 q 230 591 236 578 q 201 604 224 604 q 172 591 179 604 q 165 550 165 578 l 165 481 q 177 441 165 456 q 214 418 189 426 q 322 358 289 390 q 354 260 354 325 l 354 150 q 314 31 354 76 q 200 -14 274 -14 z "},"ß":{"ha":397,"x_min":46,"x_max":351,"o":"m 46 778 q 88 874 46 832 q 190 915 131 915 q 297 876 254 915 q 339 776 339 838 l 339 560 q 330 519 339 533 q 293 490 321 504 q 351 394 351 467 l 351 150 q 317 42 351 78 q 200 0 282 6 l 200 107 q 228 118 221 108 q 235 151 235 128 l 235 389 q 226 411 235 404 q 201 421 218 418 l 201 529 q 219 539 214 532 q 225 561 225 546 l 225 781 q 194 815 225 815 q 163 781 163 815 l 161 0 l 46 0 l 46 778 z "},"ŧ":{"ha":393,"x_min":46,"x_max":347,"o":"m 111 399 l 46 399 l 46 518 l 111 518 l 111 917 l 229 917 l 231 704 l 328 704 l 328 597 l 231 597 l 231 518 l 347 518 l 347 399 l 231 399 l 231 0 l 111 0 l 111 399 z "},"ť":{"ha":308,"x_min":-15,"x_max":290,"o":"m 46 917 l 164 917 l 165 704 l 263 704 l 263 597 l 165 597 l 165 0 l 46 0 l 46 917 z "},"ţ":{"ha":308,"x_min":-75,"x_max":263,"o":"m -75 -190 q -21 -193 -51 -190 l 25 -194 q 72 -189 57 -194 q 93 -168 86 -183 q 96 -154 96 -160 q -29 -85 96 -112 l 46 50 l 46 917 l 164 917 l 165 704 l 263 704 l 263 597 l 165 597 l 165 0 l 139 0 l 119 -37 q 194 -88 169 -57 q 218 -156 218 -119 q 158 -264 218 -231 q 4 -297 97 -297 q -75 -292 -25 -297 l -75 -190 z "},"ț":{"ha":332,"x_min":39,"x_max":286,"o":"m 69 917 l 188 917 l 189 704 l 286 704 l 286 597 l 189 597 l 189 0 l 69 0 l 69 917 z "},"ú":{"ha":400,"x_min":46,"x_max":354,"o":"m 200 -14 q 86 31 126 -14 q 46 150 46 76 l 46 704 l 164 704 l 164 154 q 171 113 164 128 q 200 99 178 99 q 229 113 222 99 q 236 154 236 128 l 236 704 l 354 704 l 354 150 q 314 31 354 76 q 200 -14 274 -14 z "},"û":{"ha":400,"x_min":43,"x_max":354,"o":"m 200 -14 q 86 31 126 -14 q 46 150 46 76 l 46 704 l 164 704 l 164 154 q 171 113 164 128 q 200 99 178 99 q 229 113 222 99 q 236 154 236 128 l 236 704 l 354 704 l 354 150 q 314 31 354 76 q 200 -14 274 -14 z "},"ü":{"ha":400,"x_min":32,"x_max":367,"o":"m 200 -14 q 86 31 126 -14 q 46 150 46 76 l 46 704 l 164 704 l 164 154 q 171 113 164 128 q 200 99 178 99 q 229 113 222 99 q 236 154 236 128 l 236 704 l 354 704 l 354 150 q 314 31 354 76 q 200 -14 274 -14 m 113 746 q 55 769 78 746 q 32 826 32 793 q 55 888 32 863 q 113 913 78 913 q 171 888 149 913 q 193 826 193 864 q 169 769 193 793 q 113 746 144 746 m 206 828 q 228 890 206 864 q 285 915 251 915 q 344 890 322 915 q 367 828 367 865 q 342 771 367 794 q 285 747 318 747 q 228 771 251 747 q 206 828 206 794 z "},"ù":{"ha":400,"x_min":46,"x_max":354,"o":"m 200 -14 q 86 31 126 -14 q 46 150 46 76 l 46 704 l 164 704 l 164 154 q 171 113 164 128 q 200 99 178 99 q 229 113 222 99 q 236 154 236 128 l 236 704 l 354 704 l 354 150 q 314 31 354 76 q 200 -14 274 -14 z "},"ű":{"ha":447,"x_min":49,"x_max":360,"o":"m 203 -14 q 89 31 129 -14 q 49 150 49 76 l 49 704 l 167 704 l 167 154 q 174 113 167 128 q 203 99 181 99 q 232 113 225 99 q 239 154 239 128 l 239 704 l 357 704 l 357 150 q 317 31 357 76 q 203 -14 276 -14 z "},"ū":{"ha":400,"x_min":32,"x_max":378,"o":"m 200 -14 q 86 31 126 -14 q 46 150 46 76 l 46 704 l 164 704 l 164 154 q 171 113 164 128 q 200 99 178 99 q 229 113 222 99 q 236 154 236 128 l 236 704 l 354 704 l 354 150 q 314 31 354 76 q 200 -14 274 -14 m 32 896 l 378 896 l 378 776 l 32 776 l 32 896 z "},"ų":{"ha":400,"x_min":46,"x_max":354,"o":"m 315 -158 q 188 -193 247 -193 q 102 -172 138 -193 q 54 -114 67 -150 q 47 -72 47 -93 q 90 26 47 -17 q 46 150 46 71 l 46 704 l 164 704 l 164 154 q 171 113 164 128 q 200 99 178 99 q 229 113 222 99 q 236 154 236 128 l 236 704 l 354 704 l 354 150 q 320 39 354 83 q 224 -12 286 -6 q 160 -68 160 -37 q 186 -89 160 -89 q 290 -57 217 -89 l 315 -158 z "},"ů":{"ha":400,"x_min":46,"x_max":354,"o":"m 200 -14 q 86 31 126 -14 q 46 150 46 76 l 46 704 l 164 704 l 164 154 q 171 113 164 128 q 200 99 178 99 q 229 113 222 99 q 236 154 236 128 l 236 704 l 354 704 l 354 150 q 314 31 354 76 q 200 -14 274 -14 z "},"ẃ":{"ha":594,"x_min":46,"x_max":549,"o":"m 46 704 l 165 704 l 203 301 l 238 704 l 358 704 l 396 301 l 429 704 l 549 704 l 457 0 l 333 0 l 300 332 l 267 0 l 143 0 l 46 704 z "},"ŵ":{"ha":594,"x_min":46,"x_max":549,"o":"m 46 704 l 165 704 l 203 301 l 238 704 l 358 704 l 396 301 l 429 704 l 549 704 l 457 0 l 333 0 l 300 332 l 267 0 l 143 0 l 46 704 z "},"ẅ":{"ha":594,"x_min":46,"x_max":549,"o":"m 46 704 l 165 704 l 203 301 l 238 704 l 358 704 l 396 301 l 429 704 l 549 704 l 457 0 l 333 0 l 300 332 l 267 0 l 143 0 l 46 704 m 213 742 q 155 765 178 742 q 132 822 132 789 q 155 883 132 858 q 213 908 178 908 q 271 884 249 908 q 293 822 293 860 q 269 765 293 789 q 213 742 244 742 m 306 824 q 328 885 306 860 q 385 911 351 911 q 444 886 422 911 q 467 824 467 861 q 442 767 467 790 q 385 743 418 743 q 328 767 351 743 q 306 824 306 790 z "},"ẁ":{"ha":594,"x_min":46,"x_max":549,"o":"m 46 704 l 165 704 l 203 301 l 238 704 l 358 704 l 396 301 l 429 704 l 549 704 l 457 0 l 333 0 l 300 332 l 267 0 l 143 0 l 46 704 z "},"ý":{"ha":404,"x_min":46,"x_max":358,"o":"m 149 13 l 46 704 l 165 704 l 206 296 l 239 704 l 358 704 l 267 11 l 225 -335 l 106 -335 l 149 13 z "},"ŷ":{"ha":404,"x_min":42,"x_max":358,"o":"m 149 13 l 46 704 l 165 704 l 206 296 l 239 704 l 358 704 l 267 11 l 225 -335 l 106 -335 l 149 13 z "},"ÿ":{"ha":404,"x_min":31,"x_max":365,"o":"m 149 13 l 46 704 l 165 704 l 206 296 l 239 704 l 358 704 l 267 11 l 225 -335 l 106 -335 l 149 13 m 111 728 q 53 751 76 728 q 31 808 31 775 q 53 869 31 844 q 111 894 76 894 q 169 870 147 894 q 192 808 192 846 q 167 751 192 775 q 111 728 143 728 m 204 810 q 227 872 204 846 q 283 897 250 897 q 343 872 321 897 q 365 810 365 847 q 341 753 365 776 q 283 729 317 729 q 227 753 250 729 q 204 810 204 776 z "},"ỳ":{"ha":404,"x_min":46,"x_max":358,"o":"m 149 13 l 46 704 l 165 704 l 206 296 l 239 704 l 358 704 l 267 11 l 225 -335 l 106 -335 l 149 13 z "},"ź":{"ha":369,"x_min":46,"x_max":328,"o":"m 46 99 l 206 594 l 46 594 l 46 704 l 324 704 l 324 606 l 167 110 l 324 110 l 324 0 l 46 0 l 46 99 z "},"ž":{"ha":369,"x_min":31,"x_max":336,"o":"m 46 99 l 206 594 l 46 594 l 46 704 l 324 704 l 324 606 l 167 110 l 324 110 l 324 0 l 46 0 l 46 99 z "},"ż":{"ha":369,"x_min":46,"x_max":324,"o":"m 46 99 l 206 594 l 46 594 l 46 704 l 324 704 l 324 606 l 167 110 l 324 110 l 324 0 l 46 0 l 46 99 z "},"μ":{"ha":449,"x_min":46,"x_max":403,"o":"m 46 704 l 164 704 l 164 157 q 171 115 164 129 q 200 100 178 100 q 229 115 222 100 q 236 157 236 129 l 236 704 l 354 704 l 354 150 q 364 101 354 114 q 403 86 374 88 l 403 -21 q 289 13 335 -25 q 201 -14 254 -14 q 164 -8 186 -14 l 164 -106 l 46 -106 l 46 704 z "},"̈":{"ha":0,"x_min":46,"x_max":381,"o":"m 126 744 q 69 768 92 744 q 46 825 46 792 q 69 886 46 861 q 126 911 92 911 q 185 887 163 911 q 207 825 207 863 q 183 768 207 792 q 126 744 158 744 m 219 826 q 242 888 219 863 q 299 914 265 914 q 358 889 336 914 q 381 826 381 864 q 356 769 381 793 q 299 746 332 746 q 242 769 265 746 q 219 826 219 793 z "},"̇":{"ha":0,"x_min":46,"x_max":208,"o":"m 126 754 q 69 778 93 754 q 46 835 46 803 q 70 891 46 865 q 126 917 94 917 q 185 893 163 917 q 208 835 208 869 q 183 778 208 803 q 126 754 158 754 z "},"̀":{"ha":0,"x_min":46,"x_max":246,"o":"m 46 896 l 167 896 l 246 703 l 125 703 l 46 896 z "},"́":{"ha":0,"x_min":47,"x_max":247,"o":"m 47 706 l 126 899 l 247 899 l 168 706 l 47 706 z "},"̋":{"ha":0,"x_min":113,"x_max":333,"o":"m 206 903 l 333 903 l 244 701 l 113 701 l 206 903 z "},"̂":{"ha":0,"x_min":46,"x_max":351,"o":"m 201 943 l 351 685 l 228 686 l 200 740 l 169 685 l 46 685 l 201 943 z "},"̌":{"ha":0,"x_min":46,"x_max":351,"o":"m 169 919 l 200 864 l 228 918 l 351 919 l 201 661 l 46 919 l 169 919 z "},"̆":{"ha":0,"x_min":46,"x_max":424,"o":"m 233 749 q 113 799 164 749 q 46 936 61 849 l 163 936 q 233 861 186 861 q 275 878 257 861 q 304 936 293 894 l 424 936 q 351 797 399 846 q 233 749 304 749 z "},"̊":{"ha":0,"x_min":46,"x_max":285,"o":"m 165 653 q 78 693 110 653 q 46 782 46 733 q 78 872 46 832 q 167 913 110 913 q 253 872 222 913 q 285 782 285 832 q 253 693 285 733 q 165 653 222 653 m 129 782 q 139 757 129 769 q 165 744 149 744 q 192 757 182 744 q 203 782 203 769 q 192 809 203 797 q 165 821 182 821 q 139 809 149 821 q 129 782 129 797 z "},"̃":{"ha":0,"x_min":67,"x_max":503,"o":"m 67 693 q 116 799 74 756 q 213 843 158 843 q 253 836 229 843 l 324 814 q 343 811 338 811 q 390 851 379 811 l 503 825 q 449 728 490 764 q 357 692 407 692 q 318 699 339 692 l 265 719 q 232 726 244 726 q 182 681 197 726 l 67 693 z "},"̄":{"ha":0,"x_min":46,"x_max":392,"o":"m 46 963 l 392 963 l 392 843 l 46 843 l 46 963 z "},"̒":{"ha":0,"x_min":53,"x_max":247,"o":"m 126 915 l 247 915 l 174 722 l 53 722 l 126 915 z "},"̦":{"ha":0,"x_min":114,"x_max":314,"o":"m 114 -315 l 193 -122 l 314 -122 l 235 -315 l 114 -315 z "},"̧":{"ha":0,"x_min":46,"x_max":339,"o":"m 46 -75 q 100 -78 69 -75 l 146 -79 q 192 -74 178 -79 q 214 -53 207 -68 q 217 -39 217 -44 q 92 31 217 3 l 167 165 l 285 165 l 240 78 q 315 27 290 58 q 339 -40 339 -4 q 278 -149 339 -115 q 125 -182 218 -182 q 46 -176 96 -182 l 46 -75 z "},"̨":{"ha":0,"x_min":46,"x_max":314,"o":"m 314 -103 q 186 -137 246 -137 q 84 -103 122 -137 q 46 -18 46 -68 q 88 81 46 35 q 214 147 129 128 l 238 139 l 261 57 q 158 -11 158 25 q 186 -33 158 -33 q 289 -1 215 -33 l 314 -103 z "},"˜":{"ha":508,"x_min":67,"x_max":503,"o":"m 67 693 q 116 799 74 756 q 213 843 158 843 q 253 836 229 843 l 324 814 q 343 811 338 811 q 390 851 379 811 l 503 825 q 449 728 490 764 q 357 692 407 692 q 318 699 339 692 l 265 719 q 232 726 244 726 q 182 681 197 726 l 67 693 z "}}}
